<?xml version="1.0" encoding="utf-8"?>
<!-- Generator: Adobe Illustrator 16.0.4, SVG Export Plug-In . SVG Version: 6.00 Build 0)  -->
<!DOCTYPE svg PUBLIC "-//W3C//DTD SVG 1.1//EN" "http://www.w3.org/Graphics/SVG/1.1/DTD/svg11.dtd">
<svg version="1.1" xmlns="http://www.w3.org/2000/svg" xmlns:xlink="http://www.w3.org/1999/xlink" x="0px" y="0px"
	 width="330.693px" height="65.347px" viewBox="0 0 330.693 65.347" enable-background="new 0 0 330.693 65.347"
	 xml:space="preserve">
<g id="レイヤー_1">
</g>
<g id="start">
	<g>
		<rect x="15.347" fill="#E4BAD7" width="300" height="50"/>
		<path d="M30.693,50.001c0,8.475-6.87,15.346-15.347,15.346C6.871,65.347,0,58.476,0,50.001c0-8.477,6.871-15.348,15.347-15.348
			v15.348H30.693z"/>
		<path d="M300,50.001c0,8.475,6.87,15.346,15.347,15.346c8.476,0,15.347-6.871,15.347-15.346c0-8.477-6.871-15.348-15.347-15.348
			v15.348H300z"/>
	</g>
	<g>
		
			<text transform="matrix(1 0 0 1 87.1235 35.4746)" stroke="#000000" stroke-width="5.5711" stroke-miterlimit="10" font-family="'FontopoNIHONGO-83pv-RKSJ-H'" font-size="34.2225">けってい！</text>
		
			<text transform="matrix(1 0 0 1 87.1235 35.4746)" fill="#FFFFFF" font-family="'FontopoNIHONGO-83pv-RKSJ-H'" font-size="34.2225">けってい！</text>
	</g>
</g>
</svg>
