<?xml version="1.0" encoding="utf-8"?>
<!-- Generator: Adobe Illustrator 16.0.4, SVG Export Plug-In . SVG Version: 6.00 Build 0)  -->
<!DOCTYPE svg PUBLIC "-//W3C//DTD SVG 1.1//EN" "http://www.w3.org/Graphics/SVG/1.1/DTD/svg11.dtd">
<svg version="1.1" xmlns="http://www.w3.org/2000/svg" xmlns:xlink="http://www.w3.org/1999/xlink" x="0px" y="0px" width="600px"
	 height="700px" viewBox="0 0 600 700" enable-background="new 0 0 600 700" xml:space="preserve">
<g id="レイヤー_1">
	<g>
		<path fill="#FCE9F2" stroke="#000000" stroke-width="11" stroke-miterlimit="10" d="M255.672,666.461c0,6.629-5.371,12-12,12
			h-14.717c-6.627,0-12-5.371-12-12v-40.496c0-6.627,5.373-12,12-12h14.717c6.629,0,12,5.373,12,12V666.461z"/>
		<path fill="#FCE9F2" stroke="#000000" stroke-width="11" stroke-miterlimit="10" d="M383.191,666.461c0,6.629-5.371,12-12,12
			h-14.717c-6.627,0-12-5.371-12-12v-40.496c0-6.627,5.373-12,12-12h14.717c6.629,0,12,5.373,12,12V666.461z"/>
	</g>
	<path fill="#FCE9F2" stroke="#000000" stroke-width="11" stroke-miterlimit="10" d="M398.119,615.531
		c0,7.418-5.373,13.432-12,13.432H214.027c-6.627,0-12-6.014-12-13.432V482.975c0-7.418,5.373-13.432,12-13.432h172.092
		c6.627,0,12,6.014,12,13.432V615.531z"/>
	<g>
		<g>
			<path d="M395.718,604.652c7.397,11.273,19.833,19.498,32.056,9.707c8.476-6.789,13.62-19.15,13.663-29.887
				c0.019-4.812-1.574-9.717-5.802-12.387c-5.352-3.381-12.138-0.162-16.869,2.691c-7.468,4.504-11.876,12.695-7.261,20.846
				c4.319,7.629,14.492,11.236,22.646,12.309c5.842,0.77,11.817,0.316,17.328-1.852c5.93-2.332,3.351-12.006-2.658-9.643
				c-6.931,2.725-14.115,2.203-21.019-0.342c-3.247-1.197-10.867-5.428-7.414-9.766c1.766-2.219,4.634-3.959,7.237-5
				c0.398-0.16,2.567-0.693,1.881-0.613c0.308-0.027,0.615-0.037,0.924-0.029c1.361-0.006-0.912-0.25,0.306,0.08
				c-0.467-0.127,0.044,0.066,0.128,0.281c0.739,1.877,0.577,2.039,0.569,3.965c-0.027,6.959-3.672,15.441-8.912,20.684
				c-2.256,2.256-5.133,3.623-7.432,3.234c-4.738-0.803-8.216-5.482-10.737-9.326C400.831,594.24,392.168,599.244,395.718,604.652
				L395.718,604.652z"/>
		</g>
	</g>
	<g>
		<path fill="#E4BAD7" stroke="#000000" stroke-width="9" stroke-miterlimit="10" d="M153.139,218.38
			c-15.551,76.187,18.439,122.868,18.439,122.868l41.684-25.827l41.684-25.824C254.945,289.597,228.281,238.374,153.139,218.38z"/>
		<path fill="#E4BAD7" stroke="#000000" stroke-width="9" stroke-miterlimit="10" d="M439.699,213.306
			c19.615,73.979-11.977,123.869-11.977,123.869l-43.135-21.261l-43.135-21.258C341.453,294.656,365.461,241.027,439.699,213.306z"
			/>
	</g>
	<path fill="#FCE9F2" stroke="#000000" stroke-width="11" stroke-miterlimit="10" d="M294.867,237.446
		c-78,2-178.449,39.441-153.01,171.12c15.062,77.977,158.062,77.977,158.062,77.977s143,0,158.064-77.977
		C483.422,276.888,372.867,239.446,294.867,237.446z"/>
	<g>
		<circle cx="195.582" cy="356.878" r="10.5"/>
		<circle cx="403.955" cy="356.878" r="10.5"/>
	</g>
	<g>
		<g>
			
				<ellipse fill="#E4BAD7" stroke="#000000" stroke-width="9" stroke-miterlimit="10" cx="299.77" cy="402.191" rx="74.23" ry="49.402"/>
		</g>
		<g>
			
				<line fill="#FCE9F2" stroke="#000000" stroke-width="9" stroke-miterlimit="10" x1="276.031" y1="381.191" x2="276.031" y2="423.191"/>
			
				<line fill="#FCE9F2" stroke="#000000" stroke-width="9" stroke-miterlimit="10" x1="323.506" y1="381.191" x2="323.506" y2="423.191"/>
		</g>
	</g>
	<g>
		
			<line fill="#FCE9F2" stroke="#000000" stroke-width="11" stroke-miterlimit="10" x1="177.598" y1="329.051" x2="217.681" y2="317.051"/>
		
			<line fill="#FCE9F2" stroke="#000000" stroke-width="11" stroke-miterlimit="10" x1="421.939" y1="329.051" x2="381.857" y2="317.051"/>
	</g>
	<g>
		<path fill="#FCE9F2" stroke="#000000" stroke-width="11" stroke-linejoin="round" stroke-miterlimit="10" d="M421.393,503.754
			c4.913,6.162,2.239,15.988-5.969,21.943l0,0c-8.212,5.957-18.852,5.793-23.765-0.371l-35.152-44.098
			c-4.913-6.164-2.241-15.99,5.971-21.949l0,0c8.209-5.955,18.849-5.787,23.763,0.377L421.393,503.754z"/>
		<path fill="#6A3906" stroke="#000000" stroke-width="11" stroke-linejoin="round" stroke-miterlimit="10" d="M357.052,452.686
			l10.698-13.734c0.916-0.406,1.56-0.535,1.745-0.301l16.032,20.242l-29.582,21.631l-16.03-20.238
			c-0.176-0.223,0.085-0.734,0.656-1.406L357.052,452.686z"/>
	</g>
	<g>
		<path fill="#FCE9F2" stroke="#000000" stroke-width="11" stroke-linejoin="round" stroke-miterlimit="10" d="M177.42,503.754
			c-4.913,6.162-2.239,15.988,5.969,21.943l0,0c8.212,5.957,18.852,5.793,23.765-0.371l35.152-44.098
			c4.913-6.164,2.241-15.99-5.971-21.949l0,0c-8.209-5.955-18.849-5.787-23.763,0.377L177.42,503.754z"/>
		<path fill="#6A3906" stroke="#000000" stroke-width="11" stroke-linejoin="round" stroke-miterlimit="10" d="M241.761,452.686
			l-10.698-13.734c-0.916-0.406-1.56-0.535-1.745-0.301l-16.032,20.242l29.582,21.631l16.03-20.238
			c0.176-0.223-0.085-0.734-0.656-1.406L241.761,452.686z"/>
	</g>
	<g>
		<circle fill="#E4BAD7" cx="176.293" cy="381.193" r="16.333"/>
		<circle fill="#E4BAD7" cx="423.855" cy="381.193" r="16.333"/>
	</g>
	<path fill="#E4007F" stroke="#000000" stroke-width="9" stroke-miterlimit="10" d="M341.499,92.334
		c-21.443-18.06-38.837,7.792-41.499,12.071c-2.663-4.279-20.058-30.131-41.5-12.071c-33.192,27.961,33.838,75.178,41.5,80.412l0,0
		c0,0-0.231,0.156,0,0c0.232,0.156,0,0,0,0l0,0C307.663,167.512,374.693,120.295,341.499,92.334z"/>
</g>
<g id="編集モード">
</g>
</svg>
