<?xml version="1.0" encoding="utf-8"?>
<!-- Generator: Adobe Illustrator 16.0.4, SVG Export Plug-In . SVG Version: 6.00 Build 0)  -->
<!DOCTYPE svg PUBLIC "-//W3C//DTD SVG 1.1//EN" "http://www.w3.org/Graphics/SVG/1.1/DTD/svg11.dtd">
<svg version="1.1" xmlns="http://www.w3.org/2000/svg" xmlns:xlink="http://www.w3.org/1999/xlink" x="0px" y="0px" width="600px"
	 height="700px" viewBox="0 0 600 700" enable-background="new 0 0 600 700" xml:space="preserve">
<g id="レイヤー_1">
	<g>
		<path fill="#FCE9F2" stroke="#000000" stroke-width="11" stroke-miterlimit="10" d="M255.672,666.462c0,6.629-5.371,12-12,12
			h-14.717c-6.627,0-12-5.371-12-12v-40.496c0-6.627,5.373-12,12-12h14.717c6.629,0,12,5.373,12,12V666.462z"/>
		<path fill="#FCE9F2" stroke="#000000" stroke-width="11" stroke-miterlimit="10" d="M383.191,666.462c0,6.629-5.371,12-12,12
			h-14.717c-6.627,0-12-5.371-12-12v-40.496c0-6.627,5.373-12,12-12h14.717c6.629,0,12,5.373,12,12V666.462z"/>
	</g>
	<path fill="#FCE9F2" stroke="#000000" stroke-width="11" stroke-miterlimit="10" d="M398.119,615.532
		c0,7.418-5.373,13.432-12,13.432H214.027c-6.627,0-12-6.014-12-13.432V482.976c0-7.418,5.373-13.432,12-13.432h172.092
		c6.627,0,12,6.014,12,13.432V615.532z"/>
	<g>
		<g>
			<path d="M395.718,604.653c7.397,11.273,19.833,19.497,32.055,9.707c8.477-6.79,13.621-19.15,13.664-29.888
				c0.019-4.812-1.574-9.717-5.802-12.387c-5.351-3.38-12.138-0.162-16.869,2.691c-7.468,4.505-11.876,12.696-7.261,20.847
				c4.319,7.628,14.492,11.235,22.646,12.309c5.842,0.77,11.816,0.315,17.328-1.853c5.93-2.332,3.35-12.006-2.658-9.643
				c-6.931,2.726-14.115,2.203-21.019-0.342c-3.247-1.196-10.867-5.428-7.414-9.766c1.765-2.218,4.634-3.959,7.237-5
				c0.398-0.159,2.568-0.693,1.881-0.612c0.308-0.028,0.615-0.038,0.924-0.03c1.361-0.005-0.912-0.249,0.306,0.08
				c-0.468-0.126,0.044,0.067,0.128,0.281c0.738,1.877,0.577,2.039,0.569,3.966c-0.027,6.958-3.672,15.441-8.911,20.684
				c-2.256,2.256-5.134,3.623-7.434,3.233c-4.737-0.802-8.215-5.482-10.736-9.325C400.831,594.24,392.168,599.244,395.718,604.653
				L395.718,604.653z"/>
		</g>
	</g>
	<g>
		<g>
			<path fill="#FCE9F2" stroke="#000000" stroke-width="11" stroke-linejoin="round" stroke-miterlimit="10" d="M529.462,328.487
				l11.896-54.354c-2.715,0.211-5.373,1.336-7.471,3.392L354.272,453.646l46.209,47.125l179.615-176.121
				c1.965-1.929,3.115-4.366,3.469-6.897L529.462,328.487z"/>
			
				<rect x="354.081" y="461.508" transform="matrix(0.6991 0.7151 -0.7151 0.6991 453.1052 -130.4893)" fill="#FCE9F2" width="55" height="23.123"/>
		</g>
		<path fill="#6A3906" stroke="#000000" stroke-width="11" stroke-linejoin="round" stroke-miterlimit="10" d="M557.931,300.66
			l-15.139-27.92c-1.502-0.977-2.598-1.379-2.988-0.992l-33.417,33.169l46.167,47.165l33.417-33.168
			c0.366-0.363,0.047-1.367-0.775-2.747L557.931,300.66z"/>
	</g>
	<g>
		<g>
			<path fill="#FCE9F2" stroke="#000000" stroke-width="11" stroke-linejoin="round" stroke-miterlimit="10" d="M70.964,327.244
				L59.067,272.89c2.715,0.21,5.373,1.336,7.471,3.392l179.615,176.121l-46.209,47.125L20.329,323.406
				c-1.965-1.929-3.115-4.365-3.469-6.898L70.964,327.244z"/>
			
				<rect x="191.345" y="460.265" transform="matrix(-0.6991 0.7151 -0.7151 -0.6991 709.2151 645.175)" fill="#FCE9F2" width="55" height="23.123"/>
		</g>
		<path fill="#6A3906" stroke="#000000" stroke-width="11" stroke-linejoin="round" stroke-miterlimit="10" d="M42.495,299.417
			l15.139-27.921c1.502-0.977,2.598-1.379,2.988-0.991l33.417,33.169L47.872,350.84l-33.417-33.17
			c-0.366-0.363-0.047-1.366,0.775-2.746L42.495,299.417z"/>
	</g>
	<g>
		<path fill="#E4BAD7" stroke="#000000" stroke-width="9" stroke-miterlimit="10" d="M153.444,209.703
			c-15.551,76.188,18.439,122.869,18.439,122.869l41.684-25.828l41.684-25.824C255.251,280.92,228.587,229.697,153.444,209.703z"/>
		<path fill="#E4BAD7" stroke="#000000" stroke-width="9" stroke-miterlimit="10" d="M440.005,204.629
			c19.615,73.979-11.977,123.869-11.977,123.869l-43.135-21.26l-43.135-21.258C341.759,285.98,365.767,232.352,440.005,204.629z"/>
	</g>
	<path fill="#FCE9F2" stroke="#000000" stroke-width="11" stroke-miterlimit="10" d="M295.173,228.77
		c-78,2-178.449,39.441-153.01,171.121c15.062,77.977,158.062,77.977,158.062,77.977s143,0,158.064-77.977
		C483.728,268.211,373.173,230.77,295.173,228.77z"/>
	<g>
		<circle cx="195.888" cy="348.201" r="10.5"/>
		<circle cx="404.261" cy="348.201" r="10.5"/>
	</g>
	<g>
		<g>
			
				<ellipse fill="#E4BAD7" stroke="#000000" stroke-width="9" stroke-miterlimit="10" cx="300.075" cy="393.516" rx="74.23" ry="49.402"/>
		</g>
		<g>
			
				<line fill="#FCE9F2" stroke="#000000" stroke-width="9" stroke-miterlimit="10" x1="276.337" y1="372.516" x2="276.337" y2="414.516"/>
			
				<line fill="#FCE9F2" stroke="#000000" stroke-width="9" stroke-miterlimit="10" x1="323.812" y1="372.516" x2="323.812" y2="414.516"/>
		</g>
	</g>
	<g>
		
			<line fill="#FCE9F2" stroke="#000000" stroke-width="11" stroke-miterlimit="10" x1="177.903" y1="308.374" x2="217.986" y2="320.374"/>
		
			<line fill="#FCE9F2" stroke="#000000" stroke-width="11" stroke-miterlimit="10" x1="422.245" y1="308.374" x2="382.163" y2="320.374"/>
	</g>
	<g>
		<circle fill="#E4BAD7" cx="176.293" cy="381.193" r="16.333"/>
		<circle fill="#E4BAD7" cx="423.855" cy="381.193" r="16.333"/>
	</g>
	<g>
		<g>
			<path fill="none" stroke="#000000" stroke-width="16" stroke-miterlimit="10" d="M55.923,209.758c0,0-7.534-74,60.243-94"/>
			
				<line fill="none" stroke="#000000" stroke-width="16" stroke-miterlimit="10" x1="29.943" y1="162.758" x2="108.736" y2="191.758"/>
			
				<line fill="none" stroke="#000000" stroke-width="16" stroke-miterlimit="10" x1="69.34" y1="115.758" x2="117.24" y2="162.758"/>
		</g>
		<g>
			<path fill="none" stroke="#000000" stroke-width="16" stroke-miterlimit="10" d="M544.228,213.932c0,0,7.534-74-60.243-94"/>
			
				<line fill="none" stroke="#000000" stroke-width="16" stroke-miterlimit="10" x1="570.207" y1="166.932" x2="491.414" y2="195.932"/>
			
				<line fill="none" stroke="#000000" stroke-width="16" stroke-miterlimit="10" x1="530.811" y1="119.932" x2="482.91" y2="166.932"/>
		</g>
	</g>
</g>
<g id="編集モード">
</g>
</svg>
