<?xml version="1.0" encoding="utf-8"?>
<!-- Generator: Adobe Illustrator 16.0.4, SVG Export Plug-In . SVG Version: 6.00 Build 0)  -->
<!DOCTYPE svg PUBLIC "-//W3C//DTD SVG 1.1//EN" "http://www.w3.org/Graphics/SVG/1.1/DTD/svg11.dtd">
<svg version="1.1" xmlns="http://www.w3.org/2000/svg" xmlns:xlink="http://www.w3.org/1999/xlink" x="0px" y="0px" width="600px"
	 height="700px" viewBox="0 0 600 700" enable-background="new 0 0 600 700" xml:space="preserve">
<g id="レイヤー_1">
	<g>
		<g>
			<path fill="#FCE9F2" stroke="#000000" stroke-width="11" stroke-miterlimit="10" d="M255.672,666.462c0,6.629-5.371,12-12,12
				h-14.717c-6.627,0-12-5.371-12-12v-40.496c0-6.627,5.373-12,12-12h14.717c6.629,0,12,5.373,12,12V666.462z"/>
			<path fill="#FCE9F2" stroke="#000000" stroke-width="11" stroke-miterlimit="10" d="M383.191,666.462c0,6.629-5.371,12-12,12
				h-14.717c-6.627,0-12-5.371-12-12v-40.496c0-6.627,5.373-12,12-12h14.717c6.629,0,12,5.373,12,12V666.462z"/>
		</g>
		<path fill="#FCE9F2" stroke="#000000" stroke-width="11" stroke-miterlimit="10" d="M398.119,615.532
			c0,7.418-5.373,13.432-12,13.432H214.027c-6.627,0-12-6.014-12-13.432V482.976c0-7.418,5.373-13.432,12-13.432h172.092
			c6.627,0,12,6.014,12,13.432V615.532z"/>
		<g>
			<g>
				<path fill="#FCE9F2" stroke="#000000" stroke-width="11" stroke-linejoin="round" stroke-miterlimit="10" d="M127.271,538.775
					l-9.975,22.863c1.213,0.145,2.48-0.119,3.582-0.84l94.346-61.777l-16.207-24.754l-94.348,61.777
					c-1.033,0.678-1.75,1.648-2.127,2.73H127.271z"/>
				
					<rect x="197.699" y="480.954" transform="matrix(-0.5467 -0.8373 0.8373 -0.5467 -87.4096 926.196)" fill="#FCE9F2" width="18.614" height="11.61"/>
			</g>
			<path fill="#6A3906" stroke="#000000" stroke-width="11" stroke-linejoin="round" stroke-miterlimit="10" d="M112.324,548.529
				l4.223,13.598c0.574,0.561,1.021,0.832,1.227,0.695l17.588-11.67l-16.186-24.768l-17.59,11.67
				c-0.191,0.127-0.139,0.598,0.104,1.275L112.324,548.529z"/>
		</g>
		<g>
			<g>
				<path fill="#FCE9F2" stroke="#000000" stroke-width="11" stroke-linejoin="round" stroke-miterlimit="10" d="M472.729,538.775
					l9.975,22.863c-1.213,0.145-2.48-0.119-3.582-0.84l-94.346-61.777l16.207-24.754l94.348,61.777
					c1.033,0.678,1.75,1.648,2.127,2.73H472.729z"/>
				
					<rect x="383.687" y="480.954" transform="matrix(0.5467 -0.8373 0.8373 0.5467 -229.4316 549.725)" fill="#FCE9F2" width="18.614" height="11.61"/>
			</g>
			<path fill="#6A3906" stroke="#000000" stroke-width="11" stroke-linejoin="round" stroke-miterlimit="10" d="M487.676,548.529
				l-4.223,13.598c-0.574,0.561-1.021,0.832-1.227,0.695l-17.588-11.67l16.186-24.768l17.59,11.67
				c0.191,0.127,0.139,0.598-0.104,1.275L487.676,548.529z"/>
		</g>
		<g>
			<g>
				<path d="M395.718,604.653c7.397,11.273,19.833,19.497,32.056,9.707c8.476-6.79,13.62-19.15,13.663-29.888
					c0.019-4.812-1.574-9.717-5.802-12.387c-5.352-3.38-12.138-0.162-16.869,2.691c-7.468,4.505-11.876,12.696-7.261,20.847
					c4.319,7.628,14.492,11.235,22.646,12.309c5.842,0.77,11.817,0.315,17.328-1.853c5.93-2.332,3.351-12.006-2.658-9.643
					c-6.931,2.726-14.115,2.203-21.019-0.342c-3.247-1.196-10.867-5.428-7.414-9.766c1.766-2.218,4.634-3.959,7.237-5
					c0.398-0.159,2.567-0.693,1.881-0.612c0.308-0.028,0.615-0.038,0.924-0.03c1.361-0.005-0.912-0.249,0.306,0.08
					c-0.467-0.126,0.044,0.067,0.128,0.281c0.739,1.877,0.577,2.039,0.569,3.966c-0.027,6.958-3.672,15.441-8.912,20.684
					c-2.256,2.256-5.133,3.623-7.432,3.233c-4.738-0.802-8.216-5.482-10.737-9.325C400.831,594.24,392.168,599.244,395.718,604.653
					L395.718,604.653z"/>
			</g>
		</g>
		<g>
			<g>
				<path fill="#E4BAD7" stroke="#000000" stroke-width="9" stroke-miterlimit="10" d="M153.139,218.38
					c-15.551,76.187,18.439,122.868,18.439,122.868l41.684-25.827l41.684-25.824C254.945,289.597,228.281,238.374,153.139,218.38z"
					/>
				<path fill="#E4BAD7" stroke="#000000" stroke-width="9" stroke-miterlimit="10" d="M439.699,213.306
					c19.615,73.979-11.977,123.869-11.977,123.869l-43.135-21.261l-43.135-21.258C341.453,294.656,365.461,241.027,439.699,213.306z
					"/>
			</g>
			<path fill="#FCE9F2" stroke="#000000" stroke-width="11" stroke-miterlimit="10" d="M294.867,237.446
				c-78,2-178.449,39.441-153.01,171.121c15.062,77.977,158.062,77.977,158.062,77.977s143,0,158.064-77.977
				C483.422,276.888,372.867,239.446,294.867,237.446z"/>
			<g>
				<circle cx="195.582" cy="356.878" r="10.5"/>
				<circle cx="403.955" cy="356.878" r="10.5"/>
			</g>
			<g>
				<g>
					
						<ellipse fill="#E4BAD7" stroke="#000000" stroke-width="9" stroke-miterlimit="10" cx="299.77" cy="402.192" rx="74.23" ry="49.402"/>
				</g>
				<g>
					
						<line fill="#FCE9F2" stroke="#000000" stroke-width="9" stroke-miterlimit="10" x1="276.031" y1="381.192" x2="276.031" y2="423.192"/>
					
						<line fill="#FCE9F2" stroke="#000000" stroke-width="9" stroke-miterlimit="10" x1="323.506" y1="381.192" x2="323.506" y2="423.192"/>
				</g>
			</g>
			<g>
				<path fill="#FCE9F2" stroke="#000000" stroke-width="11" stroke-miterlimit="10" d="M173.633,325.594
					c0,0,19.529-20.999,43.514,0"/>
				<path fill="#FCE9F2" stroke="#000000" stroke-width="11" stroke-miterlimit="10" d="M382.391,323.879
					c0,0,19.527-20.999,43.512,0"/>
			</g>
		</g>
	</g>
</g>
<g id="編集モード">
</g>
</svg>
