<?xml version="1.0" encoding="utf-8"?>
<!-- Generator: Adobe Illustrator 16.0.4, SVG Export Plug-In . SVG Version: 6.00 Build 0)  -->
<!DOCTYPE svg PUBLIC "-//W3C//DTD SVG 1.1//EN" "http://www.w3.org/Graphics/SVG/1.1/DTD/svg11.dtd">
<svg version="1.1" xmlns="http://www.w3.org/2000/svg" xmlns:xlink="http://www.w3.org/1999/xlink" x="0px" y="0px" width="600px"
	 height="700px" viewBox="0 0 600 700" enable-background="new 0 0 600 700" xml:space="preserve">
<g id="レイヤー_1">
	<g>
		
			<line fill="none" stroke="#F39800" stroke-width="16" stroke-miterlimit="10" x1="299.996" y1="21.267" x2="299.996" y2="574.86"/>
		
			<line fill="none" stroke="#F39800" stroke-width="16" stroke-miterlimit="10" x1="205.328" y1="37.96" x2="394.666" y2="558.166"/>
		
			<line fill="none" stroke="#F39800" stroke-width="16" stroke-miterlimit="10" x1="122.078" y1="86.023" x2="477.918" y2="510.101"/>
		
			<line fill="none" stroke="#F39800" stroke-width="16" stroke-miterlimit="10" x1="60.283" y1="159.663" x2="539.709" y2="436.461"/>
		<line fill="none" stroke="#F39800" stroke-width="16" stroke-miterlimit="10" x1="27.406" y1="249.998" x2="572.59" y2="346.13"/>
		
			<line fill="none" stroke="#F39800" stroke-width="16" stroke-miterlimit="10" x1="27.406" y1="346.127" x2="572.594" y2="249.998"/>
		
			<line fill="none" stroke="#F39800" stroke-width="16" stroke-miterlimit="10" x1="60.283" y1="436.461" x2="539.717" y2="159.663"/>
		
			<line fill="none" stroke="#F39800" stroke-width="16" stroke-miterlimit="10" x1="122.078" y1="510.101" x2="477.926" y2="86.023"/>
		
			<line fill="none" stroke="#F39800" stroke-width="16" stroke-miterlimit="10" x1="205.328" y1="558.166" x2="394.674" y2="37.954"/>
	</g>
	<g>
		<path fill="#FCE9F2" stroke="#000000" stroke-width="11" stroke-miterlimit="10" d="M255.672,666.462c0,6.629-5.371,12-12,12
			h-14.717c-6.627,0-12-5.371-12-12v-40.496c0-6.627,5.373-12,12-12h14.717c6.629,0,12,5.373,12,12V666.462z"/>
		<path fill="#FCE9F2" stroke="#000000" stroke-width="11" stroke-miterlimit="10" d="M383.191,666.462c0,6.629-5.371,12-12,12
			h-14.717c-6.627,0-12-5.371-12-12v-40.496c0-6.627,5.373-12,12-12h14.717c6.629,0,12,5.373,12,12V666.462z"/>
	</g>
	<path fill="#FCE9F2" stroke="#000000" stroke-width="11" stroke-miterlimit="10" d="M398.119,615.532
		c0,7.418-5.373,13.432-12,13.432H214.027c-6.627,0-12-6.014-12-13.432V482.976c0-7.418,5.373-13.432,12-13.432h172.092
		c6.627,0,12,6.014,12,13.432V615.532z"/>
	<g>
		<g>
			<path fill="#FCE9F2" stroke="#000000" stroke-width="11" stroke-linejoin="round" stroke-miterlimit="10" d="M129.067,540.694
				l-9.974,22.863c1.213,0.145,2.48-0.119,3.582-0.84l94.346-61.777l-16.208-24.754l-94.347,61.777
				c-1.033,0.678-1.751,1.648-2.127,2.73H129.067z"/>
			
				<rect x="199.496" y="482.873" transform="matrix(-0.5466 -0.8374 0.8374 -0.5466 -86.2566 930.6556)" fill="#FCE9F2" width="18.613" height="11.609"/>
		</g>
		<path fill="#6A3906" stroke="#000000" stroke-width="11" stroke-linejoin="round" stroke-miterlimit="10" d="M114.121,550.448
			l4.222,13.598c0.575,0.561,1.021,0.832,1.228,0.695l17.588-11.67l-16.187-24.768l-17.589,11.67
			c-0.192,0.127-0.14,0.598,0.103,1.275L114.121,550.448z"/>
	</g>
	<g>
		<g>
			<path d="M395.718,604.653c7.397,11.273,19.833,19.497,32.055,9.707c8.477-6.79,13.621-19.15,13.664-29.888
				c0.019-4.812-1.574-9.717-5.802-12.387c-5.351-3.38-12.138-0.162-16.869,2.691c-7.468,4.505-11.876,12.696-7.261,20.847
				c4.319,7.628,14.492,11.235,22.646,12.309c5.842,0.77,11.816,0.315,17.328-1.853c5.93-2.332,3.35-12.006-2.658-9.643
				c-6.931,2.726-14.115,2.203-21.019-0.342c-3.247-1.196-10.867-5.428-7.414-9.766c1.765-2.218,4.634-3.959,7.237-5
				c0.398-0.159,2.568-0.693,1.881-0.612c0.308-0.028,0.615-0.038,0.924-0.03c1.361-0.005-0.912-0.249,0.306,0.08
				c-0.468-0.126,0.044,0.067,0.128,0.281c0.738,1.877,0.577,2.039,0.569,3.966c-0.027,6.958-3.672,15.441-8.911,20.684
				c-2.256,2.256-5.134,3.623-7.434,3.233c-4.737-0.802-8.215-5.482-10.736-9.325C400.831,594.24,392.168,599.244,395.718,604.653
				L395.718,604.653z"/>
		</g>
	</g>
	<g>
		<g>
			<path fill="#FCE9F2" stroke="#000000" stroke-width="11" stroke-linejoin="round" stroke-miterlimit="10" d="M529.462,328.487
				l11.896-54.354c-2.715,0.211-5.373,1.336-7.471,3.392L354.272,453.646l46.209,47.125l179.615-176.121
				c1.965-1.929,3.115-4.366,3.469-6.897L529.462,328.487z"/>
			
				<rect x="354.081" y="461.508" transform="matrix(0.6991 0.7151 -0.7151 0.6991 453.1052 -130.4893)" fill="#FCE9F2" width="55" height="23.123"/>
		</g>
		<path fill="#6A3906" stroke="#000000" stroke-width="11" stroke-linejoin="round" stroke-miterlimit="10" d="M557.931,300.66
			l-15.139-27.92c-1.502-0.977-2.598-1.379-2.988-0.992l-33.417,33.169l46.167,47.165l33.417-33.168
			c0.366-0.363,0.047-1.367-0.775-2.747L557.931,300.66z"/>
	</g>
	<g>
		<g>
			<path fill="#E4BAD7" stroke="#000000" stroke-width="9" stroke-miterlimit="10" d="M153.445,216.656
				c-15.551,76.188,18.439,122.869,18.439,122.869l41.684-25.828l41.684-25.824C255.252,287.873,228.588,236.65,153.445,216.656z"/>
			<path fill="#E4BAD7" stroke="#000000" stroke-width="9" stroke-miterlimit="10" d="M440.006,211.582
				c19.615,73.979-11.977,123.869-11.977,123.869l-43.135-21.26l-43.135-21.258C341.76,292.934,365.768,239.305,440.006,211.582z"/>
		</g>
		<path fill="#FCE9F2" stroke="#000000" stroke-width="11" stroke-miterlimit="10" d="M295.174,235.723
			c-78,2-178.449,39.441-153.01,171.121c15.062,77.977,158.062,77.977,158.062,77.977s143,0,158.064-77.977
			C483.729,275.164,373.174,237.723,295.174,235.723z"/>
		<g>
			<circle cx="195.889" cy="355.154" r="10.5"/>
			<circle cx="404.262" cy="355.154" r="10.5"/>
		</g>
		<g>
			<g>
				
					<ellipse fill="#E4BAD7" stroke="#000000" stroke-width="9" stroke-miterlimit="10" cx="300.076" cy="400.469" rx="74.23" ry="49.402"/>
			</g>
			<g>
				
					<line fill="#FCE9F2" stroke="#000000" stroke-width="9" stroke-miterlimit="10" x1="276.338" y1="379.469" x2="276.338" y2="421.469"/>
				
					<line fill="#FCE9F2" stroke="#000000" stroke-width="9" stroke-miterlimit="10" x1="323.812" y1="379.469" x2="323.812" y2="421.469"/>
			</g>
		</g>
		<g>
			
				<line fill="#FCE9F2" stroke="#000000" stroke-width="11" stroke-miterlimit="10" x1="177.904" y1="315.327" x2="217.987" y2="327.327"/>
			
				<line fill="#FCE9F2" stroke="#000000" stroke-width="11" stroke-miterlimit="10" x1="422.246" y1="315.327" x2="382.164" y2="327.327"/>
		</g>
		<g>
			<circle fill="#E4BAD7" cx="176.294" cy="388.146" r="16.333"/>
			<circle fill="#E4BAD7" cx="423.856" cy="388.146" r="16.333"/>
		</g>
	</g>
</g>
<g id="編集モード">
</g>
</svg>
