<?xml version="1.0" encoding="utf-8"?>
<!-- Generator: Adobe Illustrator 16.0.4, SVG Export Plug-In . SVG Version: 6.00 Build 0)  -->
<!DOCTYPE svg PUBLIC "-//W3C//DTD SVG 1.1//EN" "http://www.w3.org/Graphics/SVG/1.1/DTD/svg11.dtd">
<svg version="1.1" xmlns="http://www.w3.org/2000/svg" xmlns:xlink="http://www.w3.org/1999/xlink" x="0px" y="0px" width="600px"
	 height="700px" viewBox="0 0 600 700" enable-background="new 0 0 600 700" xml:space="preserve">
<g id="レイヤー_1">
	<path fill="#3E3A39" stroke="#000000" stroke-width="9" stroke-miterlimit="10" d="M407.452,477.47h-3.538H299.996h-103.92h-3.537
		L85.082,651.563c0,0,52.497,37.756,110.994,0c58.498-37.756,103.92,0,103.92,0s45.422-37.756,103.918,0
		c58.498,37.756,110.994,0,110.994,0L407.452,477.47z"/>
	<g>
		<g>
			<path fill="#FCE9F2" d="M397.799,603.392c6.403,9.76,17.276,17.895,28.128,9.201c7.993-6.402,12.891-17.979,12.932-28.119
				c0.015-3.887-1.111-8.049-4.563-10.229c-4.509-2.848-10.447,0.34-14.346,2.691c-6.287,3.793-10.29,10.494-6.364,17.426
				c3.848,6.795,13.235,10.117,20.488,11.07c5.659,0.746,11.324,0.338,16.664-1.762c2.965-1.166,1.675-6.004-1.33-4.822
				c-7.294,2.869-15.079,2.338-22.347-0.342c-5.381-1.982-13.508-7.676-8.518-13.943c2.341-2.941,8.556-7.348,12.78-6.205
				c2.473,0.668,2.54,4.697,2.532,6.656c-0.031,8.018-4.025,16.83-9.644,22.451c-8.291,8.293-16.882,1.35-22.097-6.598
				C400.355,598.185,396.023,600.688,397.799,603.392L397.799,603.392z"/>
		</g>
	</g>
	<g>
		<path fill="#727171" stroke="#000000" stroke-width="11" stroke-miterlimit="10" d="M255.594,666.462c0,6.629-5.371,12-11.999,12
			h-14.719c-6.627,0-12-5.371-12-12v-40.496c0-6.627,5.373-12,12-12h14.719c6.628,0,11.999,5.373,11.999,12V666.462z"/>
		<path fill="#727171" stroke="#000000" stroke-width="11" stroke-miterlimit="10" d="M383.113,666.462c0,6.629-5.371,12-12,12
			h-14.717c-6.627,0-12-5.371-12-12v-40.496c0-6.627,5.373-12,12-12h14.717c6.629,0,12,5.373,12,12V666.462z"/>
	</g>
	<g>
		<g>
			<path fill="#727171" stroke="#000000" stroke-width="11" stroke-linejoin="round" stroke-miterlimit="10" d="M468.598,540.249
				l9.973,22.863c-1.213,0.145-2.48-0.119-3.582-0.84l-94.346-61.777l16.209-24.754l94.346,61.777
				c1.033,0.678,1.752,1.648,2.127,2.73H468.598z"/>
			
				<rect x="379.555" y="482.428" transform="matrix(0.5466 -0.8374 0.8374 0.5466 -232.5338 546.9871)" fill="#727171" width="18.613" height="11.609"/>
		</g>
		<path stroke="#000000" stroke-width="11" stroke-linejoin="round" stroke-miterlimit="10" d="M483.543,550.003l-4.221,13.598
			c-0.576,0.561-1.021,0.832-1.229,0.695l-17.588-11.67l16.188-24.768l17.588,11.67c0.193,0.127,0.141,0.598-0.102,1.275
			L483.543,550.003z"/>
	</g>
	<g>
		<g>
			<path fill="#727171" stroke="#000000" stroke-width="11" stroke-linejoin="round" stroke-miterlimit="10" d="M130.784,540.839
				l-9.975,22.863c1.213,0.145,2.48-0.119,3.582-0.84l94.346-61.777l-16.208-24.754l-94.346,61.777
				c-1.033,0.678-1.752,1.648-2.127,2.73H130.784z"/>
			
				<rect x="201.213" y="483.018" transform="matrix(-0.5466 -0.8374 0.8374 -0.5466 -83.7224 932.3168)" fill="#727171" width="18.613" height="11.609"/>
		</g>
		<path stroke="#000000" stroke-width="11" stroke-linejoin="round" stroke-miterlimit="10" d="M115.837,550.593l4.223,13.598
			c0.574,0.561,1.021,0.832,1.227,0.695l17.588-11.67l-16.186-24.768l-17.589,11.67c-0.193,0.127-0.141,0.598,0.102,1.275
			L115.837,550.593z"/>
	</g>
	<path fill="#3E3A39" stroke="#000000" stroke-width="9" stroke-miterlimit="10" d="M535.521,493.683
		c0,0-94.135-256.96-184.451-239.151l-51.38-16.537h-5.573l-51.38,16.537c-90.318-17.81-184.453,239.151-184.453,239.151
		l238.621-11.318L535.521,493.683z"/>
	<path fill="#727171" stroke="#000000" stroke-width="11" stroke-miterlimit="10" d="M398.041,615.532
		c0,7.418-5.373,13.432-12,13.432H213.95c-6.628,0-12.001-6.014-12.001-13.432V482.976c0-7.418,5.373-13.432,12.001-13.432h172.091
		c6.627,0,12,6.014,12,13.432V615.532z"/>
	<g>
		<path fill="#E4BAD7" stroke="#000000" stroke-width="9" stroke-miterlimit="10" d="M153.062,218.38
			c-15.553,76.187,18.439,122.869,18.439,122.869l41.682-25.828l41.686-25.824C254.868,289.597,228.203,238.375,153.062,218.38z"/>
		<path fill="#E4BAD7" stroke="#000000" stroke-width="9" stroke-miterlimit="10" d="M439.622,213.306
			c19.615,73.979-11.977,123.869-11.977,123.869l-43.135-21.26l-43.135-21.258C341.376,294.657,365.384,241.028,439.622,213.306z"/>
	</g>
	<g>
		
			<ellipse fill="#3E3A39" stroke="#000000" stroke-width="9" stroke-miterlimit="10" cx="200.826" cy="480.173" rx="29.999" ry="14.932"/>
		
			<ellipse fill="#3E3A39" stroke="#000000" stroke-width="9" stroke-miterlimit="10" cx="394.915" cy="480.173" rx="29.999" ry="14.932"/>
	</g>
	<path fill="#727171" stroke="#000000" stroke-width="11" stroke-miterlimit="10" d="M294.789,237.447
		c-78.001,2-178.448,39.441-153.011,171.121c15.064,77.977,158.063,77.977,158.063,77.977s143,0,158.064-77.977
		C483.344,276.888,372.789,239.447,294.789,237.447z"/>
	<g>
		<circle cx="195.504" cy="356.878" r="10.5"/>
		<circle cx="403.877" cy="356.878" r="10.5"/>
	</g>
	<g>
		<path stroke="#000000" stroke-width="9" stroke-miterlimit="10" d="M405.687,403.425c0,0-34.048,95.029-72.534,36.586
			L405.687,403.425z"/>
		<path stroke="#000000" stroke-width="9" stroke-miterlimit="10" d="M193.696,403.425c0,0,34.048,95.029,72.534,36.586
			L193.696,403.425z"/>
	</g>
	<g>
		<g>
			
				<ellipse fill="#E4BAD7" stroke="#000000" stroke-width="9" stroke-miterlimit="10" cx="299.691" cy="402.192" rx="74.231" ry="49.402"/>
		</g>
		<g>
			
				<line fill="#FCE9F2" stroke="#000000" stroke-width="9" stroke-miterlimit="10" x1="275.952" y1="381.192" x2="275.952" y2="423.192"/>
			
				<line fill="#FCE9F2" stroke="#000000" stroke-width="9" stroke-miterlimit="10" x1="323.428" y1="381.192" x2="323.428" y2="423.192"/>
		</g>
	</g>
	<g>
		<path fill="#3E3A39" stroke="#000000" stroke-width="9" stroke-miterlimit="10" d="M299.693,74.915
			c30.239-1.272,42.96,16.397,42.96,16.397c180.635,16.398,139.929,211.166,139.929,211.166l72.527,195.9l-19.101,22.898
			c0,0-65.841-206.078-108.608-209.894c-42.768-3.815-72.026,19.082-110.189,19.082c-38.161,0-17.518,0-17.518,0V74.915z"/>
		<g>
			<path fill="#3E3A39" stroke="#000000" stroke-width="9" stroke-miterlimit="10" d="M299.691,74.915
				c-30.24-1.272-42.961,16.397-42.961,16.397C76.094,107.71,116.802,302.478,116.802,302.478l-72.529,195.9l19.102,22.898
				c0,0,65.84-206.078,108.609-209.894c42.768-3.815,72.026,19.082,110.189,19.082c38.161,0,17.519,0,17.519,0V74.915z"/>
			<circle fill="#FFFFFF" cx="212.208" cy="163.821" r="24.169"/>
			<circle fill="#FFFFFF" cx="174.768" cy="196.214" r="14.97"/>
		</g>
		<line fill="none" stroke="#FFFFFF" stroke-width="5" stroke-miterlimit="10" x1="174.77" y1="174.173" x2="174.77" y2="218.255"/>
		
			<line fill="none" stroke="#FFFFFF" stroke-width="5" stroke-miterlimit="10" x1="150.325" y1="196.214" x2="199.213" y2="196.214"/>
	</g>
	<g>
		
			<line fill="none" stroke="#000000" stroke-width="7" stroke-miterlimit="10" x1="239.71" y1="599.153" x2="335.023" y2="487.313"/>
		
			<line fill="none" stroke="#000000" stroke-width="7" stroke-miterlimit="10" x1="283.929" y1="576.56" x2="255.007" y2="551.913"/>
		
			<line fill="none" stroke="#000000" stroke-width="7" stroke-miterlimit="10" x1="298.225" y1="559.784" x2="269.303" y2="535.138"/>
	</g>
	<g>
		
			<path fill="#CBE9F6" stroke="#000000" stroke-width="9" stroke-linecap="round" stroke-linejoin="round" stroke-miterlimit="10" d="
			M43.626,129.491c-19.942-3.626-16.387-38.866,15.043-21.948"/>
		
			<path fill="#CBE9F6" stroke="#000000" stroke-width="9" stroke-linecap="round" stroke-linejoin="round" stroke-miterlimit="10" d="
			M80.797,85.933c-17.962-9.392-4.088-41.981,20.89-16.482"/>
		
			<path fill="#CBE9F6" stroke="#000000" stroke-width="9" stroke-linecap="round" stroke-linejoin="round" stroke-miterlimit="10" d="
			M125.951,46.354c-14.119-14.543,9.261-41.151,24.999-9.112"/>
		
			<path fill="#CBE9F6" stroke="#000000" stroke-width="9" stroke-linecap="round" stroke-linejoin="round" stroke-miterlimit="10" d="
			M91.934,130.148c-17.963-9.394-4.089-41.98,20.889-16.483"/>
		
			<path fill="#CBE9F6" stroke="#000000" stroke-width="9" stroke-linecap="round" stroke-linejoin="round" stroke-miterlimit="10" d="
			M137.089,90.57c-14.119-14.544,9.26-41.151,24.997-9.114"/>
	</g>
	<g>
		
			<path fill="#CBE9F6" stroke="#000000" stroke-width="9" stroke-linecap="round" stroke-linejoin="round" stroke-miterlimit="10" d="
			M551.794,131.742c19.942-3.626,16.387-38.866-15.043-21.948"/>
		
			<path fill="#CBE9F6" stroke="#000000" stroke-width="9" stroke-linecap="round" stroke-linejoin="round" stroke-miterlimit="10" d="
			M514.623,88.184c17.962-9.392,4.088-41.981-20.89-16.482"/>
		
			<path fill="#CBE9F6" stroke="#000000" stroke-width="9" stroke-linecap="round" stroke-linejoin="round" stroke-miterlimit="10" d="
			M469.469,48.605c14.119-14.543-9.261-41.151-24.999-9.112"/>
		
			<path fill="#CBE9F6" stroke="#000000" stroke-width="9" stroke-linecap="round" stroke-linejoin="round" stroke-miterlimit="10" d="
			M503.486,132.399c17.963-9.394,4.089-41.98-20.889-16.483"/>
		
			<path fill="#CBE9F6" stroke="#000000" stroke-width="9" stroke-linecap="round" stroke-linejoin="round" stroke-miterlimit="10" d="
			M458.331,92.821c14.119-14.544-9.26-41.151-24.997-9.114"/>
	</g>
	<g opacity="0.5">
		<g>
			<g>
				<path fill="#727171" stroke="#000000" stroke-width="11" stroke-linejoin="round" stroke-miterlimit="10" d="M468.598,440.182
					l9.973-22.863c-1.213-0.145-2.48,0.119-3.582,0.84l-94.346,61.777l16.209,24.754l94.346-61.777
					c1.033-0.678,1.752-1.648,2.127-2.73H468.598z"/>
				
					<rect x="379.555" y="486.394" transform="matrix(0.5466 0.8374 -0.8374 0.5466 588.4662 -102.4698)" fill="#727171" width="18.613" height="11.609"/>
			</g>
			<path stroke="#000000" stroke-width="11" stroke-linejoin="round" stroke-miterlimit="10" d="M483.543,430.428l-4.221-13.598
				c-0.576-0.561-1.021-0.832-1.229-0.695l-17.588,11.67l16.188,24.768l17.588-11.67c0.193-0.127,0.141-0.598-0.102-1.275
				L483.543,430.428z"/>
		</g>
		<g>
			<g>
				<path fill="#727171" stroke="#000000" stroke-width="11" stroke-linejoin="round" stroke-miterlimit="10" d="M130.784,439.592
					l-9.975-22.863c1.213-0.145,2.48,0.119,3.582,0.84l94.346,61.777L202.529,504.1l-94.346-61.777
					c-1.033-0.678-1.752-1.648-2.127-2.73H130.784z"/>
				
					<rect x="201.213" y="485.804" transform="matrix(-0.5466 0.8374 -0.8374 -0.5466 737.2542 584.0634)" fill="#727171" width="18.613" height="11.609"/>
			</g>
			<path stroke="#000000" stroke-width="11" stroke-linejoin="round" stroke-miterlimit="10" d="M115.837,429.838l4.223-13.598
				c0.574-0.561,1.021-0.832,1.227-0.695l17.588,11.67l-16.186,24.768l-17.589-11.67c-0.193-0.127-0.141-0.598,0.102-1.275
				L115.837,429.838z"/>
		</g>
	</g>
	<g opacity="0.5">
		<g>
			<g>
				<path fill="#727171" stroke="#000000" stroke-width="11" stroke-linejoin="round" stroke-miterlimit="10" d="M418.923,581.413
					l-4.115,24.603c-1.096-0.541-2.015-1.453-2.544-2.658l-45.366-103.245l27.089-11.902l45.366,103.244
					c0.496,1.132,0.569,2.338,0.293,3.449L418.923,581.413z"/>
				
					<rect x="371.169" y="488.515" transform="matrix(0.9149 -0.4036 0.4036 0.9149 -167.1519 195.6266)" fill="#727171" width="18.613" height="11.608"/>
			</g>
			<path stroke="#000000" stroke-width="11" stroke-linejoin="round" stroke-miterlimit="10" d="M426.127,597.741l-10.956,9.094
				c-0.788,0.155-1.31,0.14-1.409-0.088l-8.373-19.375l27.078-11.927l8.374,19.376c0.093,0.212-0.208,0.577-0.781,1.014
				L426.127,597.741z"/>
		</g>
		<g>
			<g>
				<path fill="#727171" stroke="#000000" stroke-width="11" stroke-linejoin="round" stroke-miterlimit="10" d="M179.161,582.703
					l4.48,24.538c1.087-0.557,1.992-1.482,2.504-2.695l43.818-103.911l-27.263-11.497l-43.819,103.911
					c-0.479,1.139-0.533,2.346-0.241,3.452L179.161,582.703z"/>
				
					<rect x="206.996" y="489.24" transform="matrix(-0.9209 -0.3898 0.3898 -0.9209 222.5118 1035.2463)" fill="#727171" width="18.613" height="11.61"/>
			</g>
			<path stroke="#000000" stroke-width="11" stroke-linejoin="round" stroke-miterlimit="10" d="M172.199,599.138l11.092,8.928
				c0.79,0.145,1.312,0.12,1.406-0.107l8.083-19.498l-27.252-11.521l-8.084,19.499c-0.09,0.213,0.217,0.574,0.796,1.001
				L172.199,599.138z"/>
		</g>
	</g>
</g>
<g id="編集モード">
	<g>
		
			<line fill="#FCE9F2" stroke="#000000" stroke-width="11" stroke-miterlimit="10" x1="176.053" y1="333.718" x2="216.137" y2="321.717"/>
		
			<line fill="#FCE9F2" stroke="#000000" stroke-width="11" stroke-miterlimit="10" x1="420.396" y1="333.718" x2="380.314" y2="321.717"/>
	</g>
	
		<path fill="#CBE9F6" stroke="#000000" stroke-width="9" stroke-linecap="round" stroke-linejoin="round" stroke-miterlimit="10" d="
		M450.42,338.8h-0.696c-3.498,4.348-18.732,24.587-11.717,39.166c2.742,5.699,9.527,6.917,11.717,7.165v0.062
		c0,0,0.127-0.006,0.349-0.025c0.221,0.02,0.348,0.025,0.348,0.025v-0.062c2.189-0.248,8.975-1.466,11.717-7.165
		C469.152,363.387,453.918,343.147,450.42,338.8z"/>
	
		<path fill="#CBE9F6" stroke="#000000" stroke-width="9" stroke-linecap="round" stroke-linejoin="round" stroke-miterlimit="10" d="
		M160.146,399.997h-0.696c-3.498,4.348-18.732,24.587-11.717,39.166c2.742,5.699,9.527,6.917,11.717,7.165v0.062
		c0,0,0.127-0.006,0.349-0.025c0.221,0.02,0.348,0.025,0.348,0.025v-0.062c2.189-0.248,8.975-1.466,11.717-7.165
		C178.879,424.584,163.645,404.345,160.146,399.997z"/>
</g>
</svg>
