<?xml version="1.0" encoding="utf-8"?>
<!-- Generator: Adobe Illustrator 16.0.4, SVG Export Plug-In . SVG Version: 6.00 Build 0)  -->
<!DOCTYPE svg PUBLIC "-//W3C//DTD SVG 1.1//EN" "http://www.w3.org/Graphics/SVG/1.1/DTD/svg11.dtd">
<svg version="1.1" xmlns="http://www.w3.org/2000/svg" xmlns:xlink="http://www.w3.org/1999/xlink" x="0px" y="0px" width="600px"
	 height="700px" viewBox="0 0 600 700" enable-background="new 0 0 600 700" xml:space="preserve">
<g id="レイヤー_1">
	<path fill="#3E3A39" stroke="#000000" stroke-width="9" stroke-miterlimit="10" d="M407.452,477.47h-3.538H299.996h-103.92h-3.537
		L85.082,651.563c0,0,52.497,37.756,110.994,0c58.498-37.756,103.92,0,103.92,0s45.422-37.756,103.918,0
		c58.498,37.756,110.994,0,110.994,0L407.452,477.47z"/>
	<g>
		<g>
			<path fill="#FCE9F2" d="M397.799,603.392c6.403,9.76,17.276,17.895,28.128,9.201c7.993-6.402,12.891-17.979,12.932-28.119
				c0.015-3.887-1.111-8.049-4.563-10.229c-4.509-2.848-10.447,0.34-14.346,2.691c-6.287,3.793-10.29,10.494-6.364,17.426
				c3.848,6.795,13.235,10.117,20.488,11.07c5.659,0.746,11.324,0.338,16.664-1.762c2.965-1.166,1.675-6.004-1.33-4.822
				c-7.294,2.869-15.079,2.338-22.347-0.342c-5.381-1.982-13.508-7.676-8.518-13.943c2.341-2.941,8.556-7.348,12.78-6.205
				c2.473,0.668,2.54,4.697,2.532,6.656c-0.031,8.018-4.025,16.83-9.644,22.451c-8.291,8.293-16.882,1.35-22.097-6.598
				C400.355,598.185,396.023,600.688,397.799,603.392L397.799,603.392z"/>
		</g>
	</g>
	<g>
		<path fill="#727171" stroke="#000000" stroke-width="11" stroke-miterlimit="10" d="M255.594,666.462c0,6.629-5.371,12-11.999,12
			h-14.719c-6.627,0-12-5.371-12-12v-40.496c0-6.627,5.373-12,12-12h14.719c6.628,0,11.999,5.373,11.999,12V666.462z"/>
		<path fill="#727171" stroke="#000000" stroke-width="11" stroke-miterlimit="10" d="M383.113,666.462c0,6.629-5.371,12-12,12
			h-14.717c-6.627,0-12-5.371-12-12v-40.496c0-6.627,5.373-12,12-12h14.717c6.629,0,12,5.373,12,12V666.462z"/>
	</g>
	<path fill="#3E3A39" stroke="#000000" stroke-width="9" stroke-miterlimit="10" d="M535.521,493.683
		c0,0-94.135-256.961-184.451-239.15l-51.38-16.537h-5.573l-51.38,16.537c-90.318-17.811-184.453,239.15-184.453,239.15
		l238.621-11.318L535.521,493.683z"/>
	<path fill="#727171" stroke="#000000" stroke-width="11" stroke-miterlimit="10" d="M398.041,615.532
		c0,7.418-5.373,13.432-12,13.432H213.95c-6.628,0-12.001-6.014-12.001-13.432V482.976c0-7.418,5.373-13.432,12.001-13.432h172.091
		c6.627,0,12,6.014,12,13.432V615.532z"/>
	<g>
		<path fill="#E4BAD7" stroke="#000000" stroke-width="9" stroke-miterlimit="10" d="M153.062,218.38
			c-15.553,76.187,18.439,122.869,18.439,122.869l41.682-25.828l41.686-25.824C254.868,289.597,228.203,238.374,153.062,218.38z"/>
		<path fill="#E4BAD7" stroke="#000000" stroke-width="9" stroke-miterlimit="10" d="M439.622,213.306
			c19.615,73.979-11.977,123.869-11.977,123.869l-43.135-21.26l-43.135-21.259C341.376,294.656,365.384,241.028,439.622,213.306z"/>
	</g>
	<g>
		
			<ellipse fill="#3E3A39" stroke="#000000" stroke-width="9" stroke-miterlimit="10" cx="200.826" cy="480.173" rx="29.999" ry="14.932"/>
		
			<ellipse fill="#3E3A39" stroke="#000000" stroke-width="9" stroke-miterlimit="10" cx="394.915" cy="480.173" rx="29.999" ry="14.932"/>
	</g>
	<g>
		
			<line fill="none" stroke="#000000" stroke-width="7" stroke-miterlimit="10" x1="239.71" y1="599.153" x2="335.023" y2="487.313"/>
		
			<line fill="none" stroke="#000000" stroke-width="7" stroke-miterlimit="10" x1="283.929" y1="576.56" x2="255.007" y2="551.913"/>
		
			<line fill="none" stroke="#000000" stroke-width="7" stroke-miterlimit="10" x1="298.225" y1="559.784" x2="269.303" y2="535.138"/>
	</g>
	<g>
		<path fill="#727171" stroke="#000000" stroke-width="11" stroke-miterlimit="10" d="M294.789,237.446
			c-78.001,2-178.448,39.441-153.011,171.121c15.064,77.977,158.063,77.977,158.063,77.977s143,0,158.064-77.977
			C483.344,276.888,372.789,239.446,294.789,237.446z"/>
		<g>
			<path stroke="#000000" stroke-width="9" stroke-miterlimit="10" d="M405.687,403.425c0,0-34.048,95.029-72.534,36.586
				L405.687,403.425z"/>
			<path stroke="#000000" stroke-width="9" stroke-miterlimit="10" d="M193.696,403.425c0,0,34.048,95.029,72.534,36.586
				L193.696,403.425z"/>
		</g>
		<g>
			<g>
				
					<ellipse fill="#E4BAD7" stroke="#000000" stroke-width="9" stroke-miterlimit="10" cx="299.691" cy="402.192" rx="74.231" ry="49.402"/>
			</g>
			<g>
				
					<line fill="#FCE9F2" stroke="#000000" stroke-width="9" stroke-miterlimit="10" x1="275.952" y1="381.192" x2="275.952" y2="423.192"/>
				
					<line fill="#FCE9F2" stroke="#000000" stroke-width="9" stroke-miterlimit="10" x1="323.428" y1="381.192" x2="323.428" y2="423.192"/>
			</g>
		</g>
		<g>
			
				<line fill="#FCE9F2" stroke="#000000" stroke-width="11" stroke-miterlimit="10" x1="177.828" y1="321.718" x2="217.912" y2="333.718"/>
			
				<line fill="#FCE9F2" stroke="#000000" stroke-width="11" stroke-miterlimit="10" x1="422.172" y1="321.718" x2="382.09" y2="333.718"/>
		</g>
		<g>
			
				<line fill="#FCE9F2" stroke="#000000" stroke-width="11" stroke-miterlimit="10" x1="177.451" y1="346.79" x2="210.693" y2="358.79"/>
			
				<line fill="#FCE9F2" stroke="#000000" stroke-width="11" stroke-miterlimit="10" x1="421.93" y1="346.79" x2="388.689" y2="358.79"/>
		</g>
	</g>
	<g>
		<path fill="#3E3A39" stroke="#000000" stroke-width="9" stroke-miterlimit="10" d="M299.693,74.915
			c30.239-1.273,42.96,16.396,42.96,16.396c180.635,16.398,139.929,211.166,139.929,211.166l72.527,195.9l-19.101,22.898
			c0,0-65.841-206.078-108.608-209.895c-42.768-3.815-72.026,19.082-110.189,19.082c-38.161,0-17.518,0-17.518,0V74.915z"/>
		<g>
			<path fill="#3E3A39" stroke="#000000" stroke-width="9" stroke-miterlimit="10" d="M299.691,74.915
				c-30.24-1.273-42.961,16.396-42.961,16.396C76.094,107.71,116.802,302.478,116.802,302.478l-72.529,195.9l19.102,22.898
				c0,0,65.84-206.078,108.609-209.895c42.768-3.815,72.026,19.082,110.189,19.082c38.161,0,17.519,0,17.519,0V74.915z"/>
			<circle fill="#FFFFFF" cx="212.208" cy="163.821" r="24.169"/>
			<circle fill="#FFFFFF" cx="174.768" cy="196.214" r="14.97"/>
		</g>
		<line fill="none" stroke="#FFFFFF" stroke-width="5" stroke-miterlimit="10" x1="174.77" y1="174.173" x2="174.77" y2="218.255"/>
		
			<line fill="none" stroke="#FFFFFF" stroke-width="5" stroke-miterlimit="10" x1="150.325" y1="196.214" x2="199.213" y2="196.214"/>
	</g>
	<g>
		<g>
			<path fill="#727171" stroke="#000000" stroke-width="11" stroke-miterlimit="10" d="M519.615,418.57l17.854-39.322
				c-2.094-0.281-4.295,0.142-6.221,1.36L366.327,485.116l27.42,43.27l164.922-104.507c1.805-1.145,3.073-2.808,3.753-4.672
				L519.615,418.57z"/>
			
				<rect x="360.635" y="493.622" transform="matrix(0.5339 0.8455 -0.8455 0.5339 605.3768 -86.2745)" fill="#727171" width="40.627" height="24.758"/>
		</g>
		<path stroke="#000000" stroke-width="11.8859" stroke-linejoin="round" stroke-miterlimit="10" d="M549.993,399.304l-5.096-24.76
			c-1.062-0.932-1.932-1.347-2.406-1.044l-40.604,25.994l27.303,43.199l40.604-25.993c0.445-0.285,0.468-1.16,0.147-2.39
			L549.993,399.304z"/>
	</g>
	<g>
		<g>
			<path fill="#727171" stroke="#000000" stroke-width="11" stroke-miterlimit="10" d="M83.037,418.57l-17.854-39.322
				c2.094-0.281,4.295,0.142,6.221,1.36l164.922,104.508l-27.42,43.27L43.983,423.879c-1.805-1.145-3.073-2.808-3.753-4.672
				L83.037,418.57z"/>
			
				<rect x="201.391" y="493.622" transform="matrix(-0.5339 0.8455 -0.8455 -0.5339 767.9158 588.7234)" fill="#727171" width="40.627" height="24.758"/>
		</g>
		<path stroke="#000000" stroke-width="11.8859" stroke-linejoin="round" stroke-miterlimit="10" d="M52.659,399.304l5.096-24.76
			c1.062-0.932,1.932-1.347,2.406-1.044l40.604,25.994l-27.303,43.199L32.857,416.7c-0.445-0.285-0.468-1.16-0.147-2.39
			L52.659,399.304z"/>
	</g>
	<g>
		<circle fill="#E4BAD7" cx="175.909" cy="381.194" r="16.333"/>
		<circle fill="#E4BAD7" cx="423.472" cy="381.194" r="16.333"/>
	</g>
</g>
<g id="編集モード">
	<path fill="none" stroke="#000000" stroke-width="16" stroke-miterlimit="10" d="M52.776,128.849c0,0-7.534-74,60.243-94"/>
	<line fill="none" stroke="#000000" stroke-width="16" stroke-miterlimit="10" x1="26.797" y1="81.849" x2="105.59" y2="110.849"/>
	<line fill="none" stroke="#000000" stroke-width="16" stroke-miterlimit="10" x1="66.193" y1="34.849" x2="114.094" y2="81.849"/>
</g>
</svg>
