<?xml version="1.0" encoding="utf-8"?>
<!-- Generator: Adobe Illustrator 16.0.4, SVG Export Plug-In . SVG Version: 6.00 Build 0)  -->
<!DOCTYPE svg PUBLIC "-//W3C//DTD SVG 1.1//EN" "http://www.w3.org/Graphics/SVG/1.1/DTD/svg11.dtd">
<svg version="1.1" xmlns="http://www.w3.org/2000/svg" xmlns:xlink="http://www.w3.org/1999/xlink" x="0px" y="0px" width="600px"
	 height="700px" viewBox="0 0 600 700" enable-background="new 0 0 600 700" xml:space="preserve">
<g id="レイヤー_1">
	<g>
		<polygon fill="#F6E767" points="178.824,124.972 178.558,125.526 182.919,126.24 188.05,127.13 195.842,128.392 194.088,129.098 
			201.096,130.661 180.447,129.101 209.172,133.696 189.208,131.674 194.897,133.431 177.455,130.932 181.759,132.391 
			205.389,138.455 193.356,136.55 173.94,132.226 196.176,139.095 200.561,141.368 195.417,140.725 200.32,143.351 189.464,140.454 
			174.683,135.632 185.898,140.716 195.475,145.586 173.906,136.978 191.98,145.979 200.84,151.278 190.636,147.245 
			198.599,152.464 191.853,149.881 202.657,157.158 184.498,147.541 188.931,151.223 189.55,152.658 179.653,147.036 
			186.799,152.894 171.766,142.995 178.077,148.437 176.339,147.937 168.017,142.046 180.805,153.394 180.509,154.159 
			176.233,151.359 193.1,168.042 174.084,151.18 167.923,145.951 189.646,169.2 168.443,148.043 184.856,167.092 165.646,146.495 
			185.058,170.396 168.245,151.287 187.212,176.474 164.752,148.632 182.21,173.503 162.319,146.967 164.598,151.172 
			175.929,169.606 166.413,156.14 161.205,148.722 169.118,163.392 169.425,165.54 161.625,152.617 168.592,167.461 
			170.733,173.729 165.942,165.722 164.303,163.978 167.149,172.579 166.328,172.952 170.533,186.396 169.412,186.717 
			166.84,182.806 156.63,154.833 163.618,179.56 157.662,162.312 160.899,177.082 155.313,158.498 159.08,177.584 156.321,169.076 
			158.494,184.427 157.499,184.999 156.832,187.471 152.875,167.115 150.587,154.539 153.342,185.931 152.574,189.765 
			149.15,156.382 150.271,188.595 148.43,167.487 147.948,182.685 146.942,180.29 146.365,157.823 145.001,180.61 144.233,176.829 
			142.947,182.163 142.076,180.63 140.98,181.896 139.687,184.118 141.847,161.13 139.111,174.399 136.843,182.269 134.604,188.482 
			138.328,165.433 138.315,162.31 140.095,152.428 130.824,185.147 135.055,166.399 128.62,184.867 131.411,172.759 
			136.769,154.505 136.19,154.487 124.798,182.677 135.487,153.319 128.132,169.269 125.567,172.948 124.893,172.225 
			118.393,183.431 126.088,165.89 123.499,169.046 125.689,163.306 126.047,161.165 132.543,148.971 129.968,152.142 
			129.917,151.189 112.261,176.36 124.085,157.624 108.58,177.733 114.73,167.694 109.453,172.906 130.677,145.08 112.718,165.743 
			107.742,170.034 115.171,160.246 120.145,153.696 113.396,159.698 105.622,166.283 125.309,145.852 111.711,157.817 
			110.083,158.151 113.737,153.827 116.387,150.599 110.417,154.543 119.864,146.112 100.058,160.308 111.381,150.8 
			115.801,146.761 95.741,159.515 109.448,149.313 113.367,145.94 121.848,140.03 121.859,139.423 107.576,146.786 111.461,143.829 
			97.292,150.275 106.152,144.863 105.063,144.498 106.595,142.933 102.179,143.972 110.425,139.723 88.9,147.246 91.802,145.045 
			107.114,138.685 103.225,139.177 115.618,134.553 119.591,132.835 89.199,140.444 116.914,132.473 91.721,137.714 85.029,138.114 
			98.589,134.369 90.771,134.865 97.922,132.736 97.12,131.974 94.929,131.35 98.21,130.093 116.296,127.677 97.021,128.463 
			93.047,127.795 102.821,126.517 98.882,125.812 107.373,124.972 88.709,123.956 82.477,122.739 86.18,121.792 107.281,122.191 
			109.25,121.66 92.811,119.292 110.336,120.466 112.742,120.142 85.071,115.181 121.605,120.487 88.611,113.649 112.259,117.585 
			96.217,113.26 98.908,112.992 90.838,109.943 87.871,108.034 87.78,106.884 113.07,113.953 104.531,110.363 85.613,102.64 
			122.747,115.672 86.368,100.486 122.277,114.516 92.839,100.874 87.883,97.408 100.61,102.368 116.549,109.491 121.136,111.259 
			109.44,104.182 99.11,97.343 113.743,105.028 104.053,98.158 112.089,102.338 119.94,106.764 113.376,101.467 119.6,105.115 
			116.266,101.854 99.873,88.171 100.88,87.653 118.905,101.444 107.331,90.521 108.752,90.575 103.585,84.52 112.694,91.891 
			114.482,92.505 105.487,82.017 119.728,95.777 108.662,82.445 115.543,88.843 115.132,87.057 127.409,100.854 119.271,89.545 
			107.524,72.689 126.114,96.288 112.687,76.049 115.838,78.859 120.274,83.9 125.985,91.414 126.01,90.126 130.208,95.962 
			128.371,91.461 132.328,97.457 124.367,80.677 134.143,98.669 132.187,93.295 134.098,96.124 126.659,77.19 129.349,81.429 
			129.968,80.751 125.34,65.613 125.751,63.442 126.823,63.015 130.736,71.973 134.753,82.47 138.686,94.192 131.875,64.474 
			133.363,66.077 139.964,92.258 135.552,66.354 136.782,67.327 139.659,79.008 141.236,84.425 139.688,65.66 142.467,82.447 
			141.701,64.751 143.434,74.81 144.432,77.096 145.547,85.157 146.343,90.88 146.942,92.979 147.966,66.211 147.844,99.367 
			149.045,85.098 149.044,95.082 151.297,75.199 153.616,61.123 151.837,85.178 155.376,64.899 152.539,89.722 156.475,70.902 
			158.556,65.212 152.675,98.065 160.973,64.113 162.864,61.146 161.07,72.29 156.264,92.499 165.649,63.73 158.692,88.843 
			165.898,69.951 163.891,78.416 166.428,74.237 161.542,88.819 159.658,95.03 163.173,88.512 168.539,78.688 168.893,79.99 
			160.694,97.986 162.482,95.743 160.481,100.521 178.844,69.785 166.014,93.225 162.272,100.428 175.747,80.639 169.333,91.768 
			177.748,81.007 164.901,100.251 186.073,73.086 180.349,82.223 175.196,90.091 185.458,79.09 180.61,86.253 190.24,76.889 
			175.056,94.831 173.042,97.965 172.237,99.692 172.633,100.18 190.4,84.45 169.896,104.318 175.515,100.146 181.261,96.183 
			184.447,94.609 168.338,108.267 192.841,90.369 198.675,87.382 185.551,97.944 194.575,92.848 182.133,102.132 188.821,98.808 
			182.037,103.894 172.124,110.452 192.924,99.481 173.086,111.088 200.77,97.546 193.538,102.241 204.934,97.915 203.73,99.685 
			194.416,104.814 196.351,105.007 199.401,104.839 175.357,114.622 207.091,104.271 176.41,115.405 178.795,115.229 
			180.055,115.472 183.066,115.286 203.907,110.777 172.197,119.108 209.427,111.709 211.542,112.422 173.964,120.192 
			179.276,119.835 210.105,116.105 192.613,119.361 194.277,119.995 185.496,121.586 196.047,121.537 184.263,123.01 
			192.519,123.377 212.539,123.829 		"/>
		<polygon fill="none" stroke="#F6E767" stroke-width="16" stroke-miterlimit="10" points="178.824,124.972 178.558,125.526 
			182.919,126.24 188.05,127.13 195.842,128.392 194.088,129.098 201.096,130.661 180.447,129.101 209.172,133.696 189.208,131.674 
			194.897,133.431 177.455,130.932 181.759,132.391 205.389,138.455 193.356,136.55 173.94,132.226 196.176,139.095 
			200.561,141.368 195.417,140.725 200.32,143.351 189.464,140.454 174.683,135.632 185.898,140.716 195.475,145.586 
			173.906,136.978 191.98,145.979 200.84,151.278 190.636,147.245 198.599,152.464 191.853,149.881 202.657,157.158 
			184.498,147.541 188.931,151.223 189.55,152.658 179.653,147.036 186.799,152.894 171.766,142.995 178.077,148.437 
			176.339,147.937 168.017,142.046 180.805,153.394 180.509,154.159 176.233,151.359 193.1,168.042 174.084,151.18 167.923,145.951 
			189.646,169.2 168.443,148.043 184.856,167.092 165.646,146.495 185.058,170.396 168.245,151.287 187.212,176.474 
			164.752,148.632 182.21,173.503 162.319,146.967 164.598,151.172 175.929,169.606 166.413,156.14 161.205,148.722 
			169.118,163.392 169.425,165.54 161.625,152.617 168.592,167.461 170.733,173.729 165.942,165.722 164.303,163.978 
			167.149,172.579 166.328,172.952 170.533,186.396 169.412,186.717 166.84,182.806 156.63,154.833 163.618,179.56 157.662,162.312 
			160.899,177.082 155.313,158.498 159.08,177.584 156.321,169.076 158.494,184.427 157.499,184.999 156.832,187.471 
			152.875,167.115 150.587,154.539 153.342,185.931 152.574,189.765 149.15,156.382 150.271,188.595 148.43,167.487 
			147.948,182.685 146.942,180.29 146.365,157.823 145.001,180.61 144.233,176.829 142.947,182.163 142.076,180.63 140.98,181.896 
			139.687,184.118 141.847,161.13 139.111,174.399 136.843,182.269 134.604,188.482 138.328,165.433 138.315,162.31 
			140.095,152.428 130.824,185.147 135.055,166.399 128.62,184.867 131.411,172.759 136.769,154.505 136.19,154.487 
			124.798,182.677 135.487,153.319 128.132,169.269 125.567,172.948 124.893,172.225 118.393,183.431 126.088,165.89 
			123.499,169.046 125.689,163.306 126.047,161.165 132.543,148.971 129.968,152.142 129.917,151.189 112.261,176.36 
			124.085,157.624 108.58,177.733 114.73,167.694 109.453,172.906 130.677,145.08 112.718,165.743 107.742,170.034 115.171,160.246 
			120.145,153.696 113.396,159.698 105.622,166.283 125.309,145.852 111.711,157.817 110.083,158.151 113.737,153.827 
			116.387,150.599 110.417,154.543 119.864,146.112 100.058,160.308 111.381,150.8 115.801,146.761 95.741,159.515 109.448,149.313 
			113.367,145.94 121.848,140.03 121.859,139.423 107.576,146.786 111.461,143.829 97.292,150.275 106.152,144.863 105.063,144.498 
			106.595,142.933 102.179,143.972 110.425,139.723 88.9,147.246 91.802,145.045 107.114,138.685 103.225,139.177 115.618,134.553 
			119.591,132.835 89.199,140.444 116.914,132.473 91.721,137.714 85.029,138.114 98.589,134.369 90.771,134.865 97.922,132.736 
			97.12,131.974 94.929,131.35 98.21,130.093 116.296,127.677 97.021,128.463 93.047,127.795 102.821,126.517 98.882,125.812 
			107.373,124.972 88.709,123.956 82.477,122.739 86.18,121.792 107.281,122.191 109.25,121.66 92.811,119.292 110.336,120.466 
			112.742,120.142 85.071,115.181 121.605,120.487 88.611,113.649 112.259,117.585 96.217,113.26 98.908,112.992 90.838,109.943 
			87.871,108.034 87.78,106.884 113.07,113.953 104.531,110.363 85.613,102.64 122.747,115.672 86.368,100.486 122.277,114.516 
			92.839,100.874 87.883,97.408 100.61,102.368 116.549,109.491 121.136,111.259 109.44,104.182 99.11,97.343 113.743,105.028 
			104.053,98.158 112.089,102.338 119.94,106.764 113.376,101.467 119.6,105.115 116.266,101.854 99.873,88.171 100.88,87.653 
			118.905,101.444 107.331,90.521 108.752,90.575 103.585,84.52 112.694,91.891 114.482,92.505 105.487,82.017 119.728,95.777 
			108.662,82.445 115.543,88.843 115.132,87.057 127.409,100.854 119.271,89.545 107.524,72.689 126.114,96.288 112.687,76.049 
			115.838,78.859 120.274,83.9 125.985,91.414 126.01,90.126 130.208,95.962 128.371,91.461 132.328,97.457 124.367,80.677 
			134.143,98.669 132.187,93.295 134.098,96.124 126.659,77.19 129.349,81.429 129.968,80.751 125.34,65.613 125.751,63.442 
			126.823,63.015 130.736,71.973 134.753,82.47 138.686,94.192 131.875,64.474 133.363,66.077 139.964,92.258 135.552,66.354 
			136.782,67.327 139.659,79.008 141.236,84.425 139.688,65.66 142.467,82.447 141.701,64.751 143.434,74.81 144.432,77.096 
			145.547,85.157 146.343,90.88 146.942,92.979 147.966,66.211 147.844,99.367 149.045,85.098 149.044,95.082 151.297,75.199 
			153.616,61.123 151.837,85.178 155.376,64.899 152.539,89.722 156.475,70.902 158.556,65.212 152.675,98.065 160.973,64.113 
			162.864,61.146 161.07,72.29 156.264,92.499 165.649,63.73 158.692,88.843 165.898,69.951 163.891,78.416 166.428,74.237 
			161.542,88.819 159.658,95.03 163.173,88.512 168.539,78.688 168.893,79.99 160.694,97.986 162.482,95.743 160.481,100.521 
			178.844,69.785 166.014,93.225 162.272,100.428 175.747,80.639 169.333,91.768 177.748,81.007 164.901,100.251 186.073,73.086 
			180.349,82.223 175.196,90.091 185.458,79.09 180.61,86.253 190.24,76.889 175.056,94.831 173.042,97.965 172.237,99.692 
			172.633,100.18 190.4,84.45 169.896,104.318 175.515,100.146 181.261,96.183 184.447,94.609 168.338,108.267 192.841,90.369 
			198.675,87.382 185.551,97.944 194.575,92.848 182.133,102.132 188.821,98.808 182.037,103.894 172.124,110.452 192.924,99.481 
			173.086,111.088 200.77,97.546 193.538,102.241 204.934,97.915 203.73,99.685 194.416,104.814 196.351,105.007 199.401,104.839 
			175.357,114.622 207.091,104.271 176.41,115.405 178.795,115.229 180.055,115.472 183.066,115.286 203.907,110.777 
			172.197,119.108 209.427,111.709 211.542,112.422 173.964,120.192 179.276,119.835 210.105,116.105 192.613,119.361 
			194.277,119.995 185.496,121.586 196.047,121.537 184.263,123.01 192.519,123.377 212.539,123.829 		"/>
	</g>
	<path fill="#3E3A39" stroke="#000000" stroke-width="9" stroke-miterlimit="10" d="M407.452,477.47h-3.538H299.996h-103.92h-3.537
		L85.082,651.563c0,0,52.497,37.756,110.994,0c58.498-37.756,103.92,0,103.92,0s45.422-37.756,103.918,0
		c58.498,37.756,110.994,0,110.994,0L407.452,477.47z"/>
	<g>
		<g>
			<path fill="#FCE9F2" d="M397.799,603.392c6.403,9.76,17.276,17.895,28.128,9.201c7.993-6.402,12.891-17.979,12.932-28.119
				c0.015-3.887-1.111-8.049-4.563-10.229c-4.509-2.848-10.447,0.34-14.346,2.691c-6.287,3.793-10.29,10.494-6.364,17.426
				c3.848,6.795,13.235,10.117,20.488,11.07c5.659,0.746,11.324,0.338,16.664-1.762c2.965-1.166,1.675-6.004-1.33-4.822
				c-7.294,2.869-15.079,2.338-22.347-0.342c-5.381-1.982-13.508-7.676-8.518-13.943c2.341-2.941,8.556-7.348,12.78-6.205
				c2.473,0.668,2.54,4.697,2.532,6.656c-0.031,8.018-4.025,16.83-9.644,22.451c-8.291,8.293-16.882,1.35-22.097-6.598
				C400.355,598.185,396.023,600.688,397.799,603.392L397.799,603.392z"/>
		</g>
	</g>
	<g>
		<path fill="#727171" stroke="#000000" stroke-width="11" stroke-miterlimit="10" d="M255.594,666.462c0,6.629-5.371,12-11.999,12
			h-14.719c-6.627,0-12-5.371-12-12v-40.496c0-6.627,5.373-12,12-12h14.719c6.628,0,11.999,5.373,11.999,12V666.462z"/>
		<path fill="#727171" stroke="#000000" stroke-width="11" stroke-miterlimit="10" d="M383.113,666.462c0,6.629-5.371,12-12,12
			h-14.717c-6.627,0-12-5.371-12-12v-40.496c0-6.627,5.373-12,12-12h14.717c6.629,0,12,5.373,12,12V666.462z"/>
	</g>
	<g>
		<g>
			<path fill="#727171" stroke="#000000" stroke-width="11" stroke-linejoin="round" stroke-miterlimit="10" d="M468.131,541.134
				l9.973,22.863c-1.213,0.145-2.48-0.119-3.582-0.84l-94.346-61.777l16.209-24.754l94.346,61.777
				c1.033,0.678,1.752,1.648,2.127,2.73H468.131z"/>
			
				<rect x="379.088" y="483.313" transform="matrix(0.5466 -0.8374 0.8374 0.5466 -233.4863 546.9973)" fill="#727171" width="18.613" height="11.609"/>
		</g>
		<path stroke="#000000" stroke-width="11" stroke-linejoin="round" stroke-miterlimit="10" d="M483.076,550.888l-4.221,13.598
			c-0.576,0.561-1.021,0.832-1.229,0.695l-17.588-11.67l16.188-24.768l17.588,11.67c0.193,0.127,0.141,0.598-0.102,1.275
			L483.076,550.888z"/>
	</g>
	<g>
		<g>
			<path fill="#727171" stroke="#000000" stroke-width="11" stroke-linejoin="round" stroke-miterlimit="10" d="M130.317,541.724
				l-9.975,22.863c1.213,0.145,2.48-0.119,3.582-0.84l94.346-61.777l-16.208-24.754l-94.346,61.777
				c-1.033,0.678-1.752,1.648-2.127,2.73H130.317z"/>
			
				<rect x="200.746" y="483.902" transform="matrix(-0.5466 -0.8374 0.8374 -0.5466 -85.1852 933.2943)" fill="#727171" width="18.613" height="11.609"/>
		</g>
		<path stroke="#000000" stroke-width="11" stroke-linejoin="round" stroke-miterlimit="10" d="M115.37,551.478l4.223,13.598
			c0.574,0.561,1.021,0.832,1.227,0.695l17.588-11.67l-16.186-24.768l-17.589,11.67c-0.193,0.127-0.141,0.598,0.102,1.275
			L115.37,551.478z"/>
	</g>
	<path fill="#3E3A39" stroke="#000000" stroke-width="9" stroke-miterlimit="10" d="M535.521,493.683
		c0,0-94.135-256.961-184.451-239.15l-51.38-16.538h-5.573l-51.38,16.538c-90.318-17.811-184.453,239.15-184.453,239.15
		l238.621-11.318L535.521,493.683z"/>
	<path fill="#727171" stroke="#000000" stroke-width="11" stroke-miterlimit="10" d="M398.041,615.532
		c0,7.418-5.373,13.432-12,13.432H213.95c-6.628,0-12.001-6.014-12.001-13.432V482.976c0-7.418,5.373-13.432,12.001-13.432h172.091
		c6.627,0,12,6.014,12,13.432V615.532z"/>
	<g>
		<path fill="#E4BAD7" stroke="#000000" stroke-width="9" stroke-miterlimit="10" d="M153.062,218.381
			c-15.553,76.186,18.439,122.868,18.439,122.868l41.682-25.828l41.686-25.824C254.868,289.597,228.203,238.374,153.062,218.381z"/>
		<path fill="#E4BAD7" stroke="#000000" stroke-width="9" stroke-miterlimit="10" d="M439.622,213.307
			c19.615,73.978-11.977,123.868-11.977,123.868l-43.135-21.26l-43.135-21.259C341.376,294.656,365.384,241.027,439.622,213.307z"/>
	</g>
	<g>
		
			<ellipse fill="#3E3A39" stroke="#000000" stroke-width="9" stroke-miterlimit="10" cx="200.826" cy="480.173" rx="29.999" ry="14.932"/>
		
			<ellipse fill="#3E3A39" stroke="#000000" stroke-width="9" stroke-miterlimit="10" cx="394.915" cy="480.173" rx="29.999" ry="14.932"/>
	</g>
	<path fill="#727171" stroke="#000000" stroke-width="11" stroke-miterlimit="10" d="M294.789,237.446
		c-78.001,2-178.448,39.442-153.011,171.121c15.064,77.977,158.063,77.977,158.063,77.977s143,0,158.064-77.977
		C483.344,276.889,372.789,239.446,294.789,237.446z"/>
	<g>
		<path fill="none" stroke="#000000" stroke-width="11" stroke-miterlimit="10" d="M173.556,325.595c0,0,19.528-21,43.513,0"/>
	</g>
	<g>
		<path stroke="#000000" stroke-width="9" stroke-miterlimit="10" d="M405.687,403.425c0,0-34.048,95.029-72.534,36.586
			L405.687,403.425z"/>
		<path stroke="#000000" stroke-width="9" stroke-miterlimit="10" d="M193.696,403.425c0,0,34.048,95.029,72.534,36.586
			L193.696,403.425z"/>
	</g>
	<g>
		<g>
			
				<ellipse fill="#E4BAD7" stroke="#000000" stroke-width="9" stroke-miterlimit="10" cx="299.691" cy="402.192" rx="74.231" ry="49.402"/>
		</g>
		<g>
			
				<line fill="#FCE9F2" stroke="#000000" stroke-width="9" stroke-miterlimit="10" x1="275.952" y1="381.192" x2="275.952" y2="423.192"/>
			
				<line fill="#FCE9F2" stroke="#000000" stroke-width="9" stroke-miterlimit="10" x1="323.428" y1="381.192" x2="323.428" y2="423.192"/>
		</g>
	</g>
	<g>
		<path fill="#3E3A39" stroke="#000000" stroke-width="9" stroke-miterlimit="10" d="M299.693,74.914
			c30.239-1.271,42.96,16.398,42.96,16.398c180.635,16.398,139.929,211.165,139.929,211.165l72.527,195.9l-19.101,22.898
			c0,0-65.841-206.078-108.608-209.895c-42.768-3.815-72.026,19.082-110.189,19.082c-38.161,0-17.518,0-17.518,0V74.914z"/>
		<g>
			<path fill="#3E3A39" stroke="#000000" stroke-width="9" stroke-miterlimit="10" d="M299.691,74.914
				c-30.24-1.271-42.961,16.398-42.961,16.398C76.094,107.711,116.802,302.478,116.802,302.478l-72.529,195.9l19.102,22.898
				c0,0,65.84-206.078,108.609-209.895c42.768-3.815,72.026,19.082,110.189,19.082c38.161,0,17.519,0,17.519,0V74.914z"/>
			<circle fill="#FFFFFF" cx="212.208" cy="163.82" r="24.169"/>
			<circle fill="#FFFFFF" cx="174.768" cy="196.215" r="14.97"/>
		</g>
		<line fill="none" stroke="#FFFFFF" stroke-width="5" stroke-miterlimit="10" x1="174.77" y1="174.174" x2="174.77" y2="218.256"/>
		
			<line fill="none" stroke="#FFFFFF" stroke-width="5" stroke-miterlimit="10" x1="150.325" y1="196.215" x2="199.213" y2="196.215"/>
	</g>
	<g>
		
			<line fill="none" stroke="#000000" stroke-width="7" stroke-miterlimit="10" x1="239.71" y1="599.153" x2="335.023" y2="487.313"/>
		
			<line fill="none" stroke="#000000" stroke-width="7" stroke-miterlimit="10" x1="283.929" y1="576.56" x2="255.007" y2="551.913"/>
		
			<line fill="none" stroke="#000000" stroke-width="7" stroke-miterlimit="10" x1="298.225" y1="559.784" x2="269.303" y2="535.138"/>
	</g>
	<circle fill="#FFFFFF" stroke="#FFFFFF" stroke-width="16" stroke-miterlimit="10" cx="195.504" cy="358.503" r="18.68"/>
	<g>
		<circle cx="195.504" cy="356.878" r="10.5"/>
		<circle cx="403.877" cy="356.878" r="10.5"/>
	</g>
	<g>
		
			<line fill="none" stroke="#000000" stroke-width="11" stroke-miterlimit="10" x1="287.367" y1="333.718" x2="287.367" y2="346.378"/>
		
			<line fill="none" stroke="#000000" stroke-width="11" stroke-miterlimit="10" x1="312.293" y1="333.718" x2="312.293" y2="346.378"/>
	</g>
	<g>
		
			<line fill="#FCE9F2" stroke="#000000" stroke-width="11" stroke-miterlimit="10" x1="422.172" y1="321.718" x2="382.09" y2="333.718"/>
	</g>
</g>
<g id="編集モード">
</g>
</svg>
