<?xml version="1.0" encoding="utf-8"?>
<!-- Generator: Adobe Illustrator 16.0.4, SVG Export Plug-In . SVG Version: 6.00 Build 0)  -->
<!DOCTYPE svg PUBLIC "-//W3C//DTD SVG 1.1//EN" "http://www.w3.org/Graphics/SVG/1.1/DTD/svg11.dtd">
<svg version="1.1" xmlns="http://www.w3.org/2000/svg" xmlns:xlink="http://www.w3.org/1999/xlink" x="0px" y="0px" width="600px"
	 height="700px" viewBox="0 0 600 700" enable-background="new 0 0 600 700" xml:space="preserve">
<g id="レイヤー_1">
	<path fill="#3E3A39" stroke="#000000" stroke-width="9" stroke-miterlimit="10" d="M407.452,477.47h-3.538H299.996h-103.92h-3.537
		L85.082,651.563c0,0,52.497,37.756,110.994,0c58.498-37.756,103.92,0,103.92,0s45.422-37.756,103.918,0
		c58.498,37.756,110.994,0,110.994,0L407.452,477.47z"/>
	<g>
		<g>
			<path fill="#FCE9F2" d="M397.799,603.392c6.403,9.76,17.276,17.895,28.128,9.201c7.993-6.402,12.891-17.979,12.932-28.119
				c0.015-3.887-1.111-8.049-4.563-10.229c-4.509-2.848-10.447,0.34-14.346,2.691c-6.287,3.793-10.29,10.494-6.364,17.426
				c3.848,6.795,13.235,10.117,20.488,11.07c5.659,0.746,11.324,0.338,16.664-1.762c2.965-1.166,1.675-6.004-1.33-4.822
				c-7.294,2.869-15.079,2.338-22.347-0.342c-5.381-1.982-13.508-7.676-8.518-13.943c2.341-2.941,8.556-7.348,12.78-6.205
				c2.473,0.668,2.54,4.697,2.532,6.656c-0.031,8.018-4.025,16.83-9.644,22.451c-8.291,8.293-16.882,1.35-22.097-6.598
				C400.355,598.185,396.023,600.688,397.799,603.392L397.799,603.392z"/>
		</g>
	</g>
	<g>
		<path fill="#727171" stroke="#000000" stroke-width="11" stroke-miterlimit="10" d="M255.594,666.462c0,6.629-5.371,12-11.999,12
			h-14.719c-6.627,0-12-5.371-12-12v-40.496c0-6.627,5.373-12,12-12h14.719c6.628,0,11.999,5.373,11.999,12V666.462z"/>
		<path fill="#727171" stroke="#000000" stroke-width="11" stroke-miterlimit="10" d="M383.113,666.462c0,6.629-5.371,12-12,12
			h-14.717c-6.627,0-12-5.371-12-12v-40.496c0-6.627,5.373-12,12-12h14.717c6.629,0,12,5.373,12,12V666.462z"/>
	</g>
	<g>
		<g>
			<path fill="#727171" stroke="#000000" stroke-width="11" stroke-linejoin="round" stroke-miterlimit="10" d="M468.131,541.134
				l9.973,22.863c-1.213,0.145-2.48-0.119-3.582-0.84l-94.346-61.777l16.209-24.754l94.346,61.777
				c1.033,0.678,1.752,1.648,2.127,2.73H468.131z"/>
			
				<rect x="379.088" y="483.313" transform="matrix(0.5466 -0.8374 0.8374 0.5466 -233.4863 546.9973)" fill="#727171" width="18.613" height="11.609"/>
		</g>
		<path stroke="#000000" stroke-width="11" stroke-linejoin="round" stroke-miterlimit="10" d="M483.076,550.888l-4.221,13.598
			c-0.576,0.561-1.021,0.832-1.229,0.695l-17.588-11.67l16.188-24.768l17.588,11.67c0.193,0.127,0.141,0.598-0.102,1.275
			L483.076,550.888z"/>
	</g>
	<g>
		<g>
			<path fill="#727171" stroke="#000000" stroke-width="11" stroke-linejoin="round" stroke-miterlimit="10" d="M130.317,541.724
				l-9.975,22.863c1.213,0.145,2.48-0.119,3.582-0.84l94.346-61.777l-16.208-24.754l-94.346,61.777
				c-1.033,0.678-1.752,1.648-2.127,2.73H130.317z"/>
			
				<rect x="200.746" y="483.902" transform="matrix(-0.5466 -0.8374 0.8374 -0.5466 -85.1852 933.2943)" fill="#727171" width="18.613" height="11.609"/>
		</g>
		<path stroke="#000000" stroke-width="11" stroke-linejoin="round" stroke-miterlimit="10" d="M115.37,551.478l4.223,13.598
			c0.574,0.561,1.021,0.832,1.227,0.695l17.588-11.67l-16.186-24.768l-17.589,11.67c-0.193,0.127-0.141,0.598,0.102,1.275
			L115.37,551.478z"/>
	</g>
	<path fill="#3E3A39" stroke="#000000" stroke-width="9" stroke-miterlimit="10" d="M535.521,493.683
		c0,0-94.135-256.961-184.451-239.15l-51.38-16.538h-5.573l-51.38,16.538c-90.318-17.811-184.453,239.15-184.453,239.15
		l238.621-11.318L535.521,493.683z"/>
	<path fill="#727171" stroke="#000000" stroke-width="11" stroke-miterlimit="10" d="M398.041,615.532
		c0,7.418-5.373,13.432-12,13.432H213.95c-6.628,0-12.001-6.014-12.001-13.432V482.976c0-7.418,5.373-13.432,12.001-13.432h172.091
		c6.627,0,12,6.014,12,13.432V615.532z"/>
	<g>
		<path fill="#E4BAD7" stroke="#000000" stroke-width="9" stroke-miterlimit="10" d="M153.062,218.381
			c-15.553,76.186,18.439,122.868,18.439,122.868l41.682-25.828l41.686-25.824C254.868,289.597,228.203,238.374,153.062,218.381z"/>
		<path fill="#E4BAD7" stroke="#000000" stroke-width="9" stroke-miterlimit="10" d="M439.622,213.307
			c19.615,73.978-11.977,123.868-11.977,123.868l-43.135-21.26l-43.135-21.259C341.376,294.656,365.384,241.027,439.622,213.307z"/>
	</g>
	<g>
		
			<ellipse fill="#3E3A39" stroke="#000000" stroke-width="9" stroke-miterlimit="10" cx="200.826" cy="480.173" rx="29.999" ry="14.932"/>
		
			<ellipse fill="#3E3A39" stroke="#000000" stroke-width="9" stroke-miterlimit="10" cx="394.915" cy="480.173" rx="29.999" ry="14.932"/>
	</g>
	<path fill="#727171" stroke="#000000" stroke-width="11" stroke-miterlimit="10" d="M294.789,237.446
		c-78.001,2-178.448,39.442-153.011,171.121c15.064,77.977,158.063,77.977,158.063,77.977s143,0,158.064-77.977
		C483.344,276.889,372.789,239.446,294.789,237.446z"/>
	<g>
		<path fill="none" stroke="#000000" stroke-width="11" stroke-miterlimit="10" d="M173.556,325.595c0,0,19.528-21,43.513,0"/>
		<path fill="none" stroke="#000000" stroke-width="11" stroke-miterlimit="10" d="M382.312,323.88c0,0,19.528-21,43.513,0"/>
	</g>
	<g>
		<circle cx="195.504" cy="356.878" r="10.5"/>
		<circle cx="403.877" cy="356.878" r="10.5"/>
	</g>
	<g>
		<path stroke="#000000" stroke-width="9" stroke-miterlimit="10" d="M405.687,403.425c0,0-34.048,95.029-72.534,36.586
			L405.687,403.425z"/>
		<path stroke="#000000" stroke-width="9" stroke-miterlimit="10" d="M193.696,403.425c0,0,34.048,95.029,72.534,36.586
			L193.696,403.425z"/>
	</g>
	<g>
		<g>
			
				<ellipse fill="#E4BAD7" stroke="#000000" stroke-width="9" stroke-miterlimit="10" cx="299.691" cy="402.192" rx="74.231" ry="49.402"/>
		</g>
		<g>
			
				<line fill="#FCE9F2" stroke="#000000" stroke-width="9" stroke-miterlimit="10" x1="275.952" y1="381.192" x2="275.952" y2="423.192"/>
			
				<line fill="#FCE9F2" stroke="#000000" stroke-width="9" stroke-miterlimit="10" x1="323.428" y1="381.192" x2="323.428" y2="423.192"/>
		</g>
	</g>
	<g>
		<path fill="#3E3A39" stroke="#000000" stroke-width="9" stroke-miterlimit="10" d="M299.693,74.914
			c30.239-1.271,42.96,16.398,42.96,16.398c180.635,16.398,139.929,211.165,139.929,211.165l72.527,195.9l-19.101,22.898
			c0,0-65.841-206.078-108.608-209.895c-42.768-3.815-72.026,19.082-110.189,19.082c-38.161,0-17.518,0-17.518,0V74.914z"/>
		<g>
			<path fill="#3E3A39" stroke="#000000" stroke-width="9" stroke-miterlimit="10" d="M299.691,74.914
				c-30.24-1.271-42.961,16.398-42.961,16.398C76.094,107.711,116.802,302.478,116.802,302.478l-72.529,195.9l19.102,22.898
				c0,0,65.84-206.078,108.609-209.895c42.768-3.815,72.026,19.082,110.189,19.082c38.161,0,17.519,0,17.519,0V74.914z"/>
			<circle fill="#FFFFFF" cx="212.208" cy="163.82" r="24.169"/>
			<circle fill="#FFFFFF" cx="174.768" cy="196.215" r="14.97"/>
		</g>
		<line fill="none" stroke="#FFFFFF" stroke-width="5" stroke-miterlimit="10" x1="174.77" y1="174.174" x2="174.77" y2="218.256"/>
		
			<line fill="none" stroke="#FFFFFF" stroke-width="5" stroke-miterlimit="10" x1="150.325" y1="196.215" x2="199.213" y2="196.215"/>
	</g>
	<g>
		
			<line fill="none" stroke="#000000" stroke-width="7" stroke-miterlimit="10" x1="239.71" y1="599.153" x2="335.023" y2="487.313"/>
		
			<line fill="none" stroke="#000000" stroke-width="7" stroke-miterlimit="10" x1="283.929" y1="576.56" x2="255.007" y2="551.913"/>
		
			<line fill="none" stroke="#000000" stroke-width="7" stroke-miterlimit="10" x1="298.225" y1="559.784" x2="269.303" y2="535.138"/>
	</g>
</g>
<g id="編集モード">
</g>
</svg>
