<?xml version="1.0" encoding="utf-8"?>
<!-- Generator: Adobe Illustrator 16.0.4, SVG Export Plug-In . SVG Version: 6.00 Build 0)  -->
<!DOCTYPE svg PUBLIC "-//W3C//DTD SVG 1.1//EN" "http://www.w3.org/Graphics/SVG/1.1/DTD/svg11.dtd">
<svg version="1.1" xmlns="http://www.w3.org/2000/svg" xmlns:xlink="http://www.w3.org/1999/xlink" x="0px" y="0px" width="600px"
	 height="700px" viewBox="0 0 600 700" enable-background="new 0 0 600 700" xml:space="preserve">
<g id="レイヤー_1">
	<g>
		
			<line fill="none" stroke="#F39800" stroke-width="16" stroke-miterlimit="10" x1="299.996" y1="21.267" x2="299.996" y2="574.86"/>
		
			<line fill="none" stroke="#F39800" stroke-width="16" stroke-miterlimit="10" x1="205.328" y1="37.96" x2="394.666" y2="558.166"/>
		
			<line fill="none" stroke="#F39800" stroke-width="16" stroke-miterlimit="10" x1="122.078" y1="86.023" x2="477.918" y2="510.101"/>
		
			<line fill="none" stroke="#F39800" stroke-width="16" stroke-miterlimit="10" x1="60.283" y1="159.663" x2="539.709" y2="436.461"/>
		<line fill="none" stroke="#F39800" stroke-width="16" stroke-miterlimit="10" x1="27.406" y1="249.998" x2="572.59" y2="346.13"/>
		
			<line fill="none" stroke="#F39800" stroke-width="16" stroke-miterlimit="10" x1="27.406" y1="346.127" x2="572.594" y2="249.998"/>
		
			<line fill="none" stroke="#F39800" stroke-width="16" stroke-miterlimit="10" x1="60.283" y1="436.461" x2="539.717" y2="159.663"/>
		
			<line fill="none" stroke="#F39800" stroke-width="16" stroke-miterlimit="10" x1="122.078" y1="510.101" x2="477.926" y2="86.023"/>
		
			<line fill="none" stroke="#F39800" stroke-width="16" stroke-miterlimit="10" x1="205.328" y1="558.166" x2="394.674" y2="37.954"/>
	</g>
	<path fill="#3E3A39" stroke="#000000" stroke-width="9" stroke-miterlimit="10" d="M407.452,477.47h-3.538H299.996h-103.92h-3.537
		L85.082,651.563c0,0,52.497,37.756,110.994,0c58.498-37.756,103.92,0,103.92,0s45.422-37.756,103.918,0
		c58.498,37.756,110.994,0,110.994,0L407.452,477.47z"/>
	<g>
		<g>
			<path fill="#FCE9F2" d="M399.076,613.296c6.48,1.979,11.503,7.085,17.403,10.248c0.995,0.533,2.214,0.425,3.029-0.392
				c5.628-5.634,11.585-11.425,15.39-18.505c-1.553-0.421-3.105-0.841-4.658-1.262c0.101,8.782,1.359,17.58,0.09,26.334
				c-0.417,2.873,2.805,4.222,4.568,1.927c4.409-5.736,9.502-10.885,14.608-15.993c-1.309-0.168-2.617-0.337-3.927-0.506
				c2.75,6.023,3.427,13.357,7.892,18.505c2.116,2.44,5.638-1.112,3.535-3.535c-4.01-4.623-4.61-12.019-7.108-17.493
				c-0.681-1.49-2.874-1.56-3.927-0.506c-5.421,5.423-10.712,10.918-15.39,17.005c1.522,0.642,3.046,1.284,4.568,1.927
				c1.342-9.246,0.196-18.388,0.09-27.664c-0.027-2.419-3.454-3.504-4.658-1.262c-3.607,6.713-9.271,12.149-14.608,17.493
				c1.01-0.131,2.02-0.261,3.029-0.392c-6.335-3.395-11.619-8.621-18.597-10.75C397.313,607.531,396.002,612.358,399.076,613.296
				L399.076,613.296z"/>
		</g>
	</g>
	<g>
		<path fill="#727171" stroke="#000000" stroke-width="11" stroke-miterlimit="10" d="M255.594,666.462c0,6.629-5.371,12-11.999,12
			h-14.719c-6.627,0-12-5.371-12-12v-40.496c0-6.627,5.373-12,12-12h14.719c6.628,0,11.999,5.373,11.999,12V666.462z"/>
		<path fill="#727171" stroke="#000000" stroke-width="11" stroke-miterlimit="10" d="M383.113,666.462c0,6.629-5.371,12-12,12
			h-14.717c-6.627,0-12-5.371-12-12v-40.496c0-6.627,5.373-12,12-12h14.717c6.629,0,12,5.373,12,12V666.462z"/>
	</g>
	<g>
		<g>
			<path fill="#727171" stroke="#000000" stroke-width="11" stroke-linejoin="round" stroke-miterlimit="10" d="M482.341,540.309
				l9.975,22.863c-1.213,0.145-2.48-0.119-3.582-0.84l-94.346-61.777l16.208-24.754l94.346,61.777
				c1.033,0.678,1.752,1.648,2.127,2.73H482.341z"/>
			
				<rect x="393.299" y="482.487" transform="matrix(0.5466 -0.8374 0.8374 0.5466 -226.3553 558.4956)" fill="#727171" width="18.613" height="11.609"/>
		</g>
		<path stroke="#000000" stroke-width="11" stroke-linejoin="round" stroke-miterlimit="10" d="M497.288,550.062l-4.223,13.598
			c-0.574,0.561-1.021,0.832-1.227,0.695l-17.588-11.67l16.186-24.768l17.589,11.67c0.193,0.127,0.141,0.598-0.102,1.275
			L497.288,550.062z"/>
	</g>
	<path fill="#3E3A39" stroke="#000000" stroke-width="9" stroke-miterlimit="10" d="M535.521,493.683
		c0,0-94.135-256.961-184.451-239.15l-51.38-16.537h-5.573l-51.38,16.537c-90.318-17.811-184.453,239.15-184.453,239.15
		l238.621-11.318L535.521,493.683z"/>
	<path fill="#727171" stroke="#000000" stroke-width="11" stroke-miterlimit="10" d="M398.041,615.532
		c0,7.418-5.373,13.432-12,13.432H213.95c-6.628,0-12.001-6.014-12.001-13.432V482.976c0-7.418,5.373-13.432,12.001-13.432h172.091
		c6.627,0,12,6.014,12,13.432V615.532z"/>
	<g>
		<path fill="#E4BAD7" stroke="#000000" stroke-width="9" stroke-miterlimit="10" d="M153.062,218.38
			c-15.553,76.187,18.439,122.869,18.439,122.869l41.682-25.828l41.686-25.824C254.868,289.597,228.203,238.374,153.062,218.38z"/>
		<path fill="#E4BAD7" stroke="#000000" stroke-width="9" stroke-miterlimit="10" d="M439.622,213.306
			c19.615,73.979-11.977,123.869-11.977,123.869l-43.135-21.26l-43.135-21.259C341.376,294.656,365.384,241.028,439.622,213.306z"/>
	</g>
	<g>
		
			<ellipse fill="#3E3A39" stroke="#000000" stroke-width="9" stroke-miterlimit="10" cx="200.826" cy="480.173" rx="29.999" ry="14.932"/>
		
			<ellipse fill="#3E3A39" stroke="#000000" stroke-width="9" stroke-miterlimit="10" cx="394.915" cy="480.173" rx="29.999" ry="14.932"/>
	</g>
	<g>
		
			<line fill="none" stroke="#000000" stroke-width="7" stroke-miterlimit="10" x1="239.71" y1="599.153" x2="335.023" y2="487.313"/>
		
			<line fill="none" stroke="#000000" stroke-width="7" stroke-miterlimit="10" x1="283.929" y1="576.56" x2="255.007" y2="551.913"/>
		
			<line fill="none" stroke="#000000" stroke-width="7" stroke-miterlimit="10" x1="298.225" y1="559.784" x2="269.303" y2="535.138"/>
	</g>
	<path fill="#727171" stroke="#000000" stroke-width="11" stroke-miterlimit="10" d="M294.789,237.446
		c-78.001,2-178.448,39.441-153.011,171.121c15.064,77.977,158.063,77.977,158.063,77.977s143,0,158.064-77.977
		C483.344,276.888,372.789,239.446,294.789,237.446z"/>
	<g>
		<circle cx="195.504" cy="356.878" r="10.5"/>
		<circle cx="403.877" cy="356.878" r="10.5"/>
	</g>
	<g>
		<path stroke="#000000" stroke-width="9" stroke-miterlimit="10" d="M405.687,403.425c0,0-34.048,95.029-72.534,36.586
			L405.687,403.425z"/>
		<path stroke="#000000" stroke-width="9" stroke-miterlimit="10" d="M193.696,403.425c0,0,34.048,95.029,72.534,36.586
			L193.696,403.425z"/>
	</g>
	<g>
		
			<line fill="#FCE9F2" stroke="#000000" stroke-width="11" stroke-miterlimit="10" x1="177.828" y1="321.718" x2="217.912" y2="333.718"/>
		
			<line fill="#FCE9F2" stroke="#000000" stroke-width="11" stroke-miterlimit="10" x1="422.172" y1="321.718" x2="382.09" y2="333.718"/>
	</g>
	<g>
		<path fill="#3E3A39" stroke="#000000" stroke-width="9" stroke-miterlimit="10" d="M299.693,74.915
			c30.239-1.273,42.96,16.396,42.96,16.396c180.635,16.398,139.929,211.166,139.929,211.166l72.527,195.9l-19.101,22.898
			c0,0-65.841-206.078-108.608-209.895c-42.768-3.815-72.026,19.082-110.189,19.082c-38.161,0-17.518,0-17.518,0V74.915z"/>
		<g>
			<path fill="#3E3A39" stroke="#000000" stroke-width="9" stroke-miterlimit="10" d="M299.691,74.915
				c-30.24-1.273-42.961,16.396-42.961,16.396C76.094,107.71,116.802,302.478,116.802,302.478l-72.529,195.9l19.102,22.898
				c0,0,65.84-206.078,108.609-209.895c42.768-3.815,72.026,19.082,110.189,19.082c38.161,0,17.519,0,17.519,0V74.915z"/>
			<circle fill="#FFFFFF" cx="212.208" cy="163.821" r="24.169"/>
			<circle fill="#FFFFFF" cx="174.768" cy="196.214" r="14.97"/>
		</g>
		<line fill="none" stroke="#FFFFFF" stroke-width="5" stroke-miterlimit="10" x1="174.77" y1="174.173" x2="174.77" y2="218.255"/>
		
			<line fill="none" stroke="#FFFFFF" stroke-width="5" stroke-miterlimit="10" x1="150.325" y1="196.214" x2="199.213" y2="196.214"/>
	</g>
	
		<ellipse fill="#E4007F" stroke="#000000" stroke-width="11" stroke-miterlimit="10" cx="299.691" cy="459.013" rx="12.43" ry="49.25"/>
	<g>
		<g>
			
				<ellipse fill="#E4BAD7" stroke="#000000" stroke-width="9" stroke-miterlimit="10" cx="299.691" cy="402.192" rx="74.231" ry="49.402"/>
		</g>
		<g>
			
				<line fill="#FCE9F2" stroke="#000000" stroke-width="9" stroke-miterlimit="10" x1="275.952" y1="381.192" x2="275.952" y2="423.192"/>
			
				<line fill="#FCE9F2" stroke="#000000" stroke-width="9" stroke-miterlimit="10" x1="323.428" y1="381.192" x2="323.428" y2="423.192"/>
		</g>
	</g>
	<polyline fill="#727171" stroke="#000000" stroke-width="11" stroke-linecap="round" stroke-miterlimit="10" points="
		206.192,521.699 107.809,445.084 175.429,408.782 241.731,478.89 	"/>
	<path stroke="#727171" stroke-width="2" stroke-linejoin="round" stroke-miterlimit="10" d="M61.447,402.542
		c-5.651,40.356,21.966,77.576,61.688,83.139c39.72,5.564,76.498-22.641,82.156-62.989c5.646-40.366-21.971-77.587-61.692-83.15
		l-10.232,73.069L61.447,402.542z"/>
</g>
<g id="編集モード">
</g>
</svg>
